<?xml version="1.0" encoding="UTF-8" standalone="no"?>
<!DOCTYPE svg PUBLIC "-//W3C//DTD SVG 1.1//EN" "http://www.w3.org/Graphics/SVG/1.1/DTD/svg11.dtd">
<svg width="100%" height="100%" viewBox="0 0 1080 1080" version="1.1" xmlns="http://www.w3.org/2000/svg" xmlns:xlink="http://www.w3.org/1999/xlink" xml:space="preserve" xmlns:serif="http://www.serif.com/" style="fill-rule:evenodd;clip-rule:evenodd;stroke-linejoin:round;stroke-miterlimit:2;">
    <g transform="matrix(1.00243,0,0,1.00242,-2.38985,-2.50313)">
        <circle cx="541.076" cy="541.188" r="538.691" style="fill:rgb(36,36,36);"/>
    </g>
    <g transform="matrix(1.19177,-0.515373,0.515373,1.19177,-183.951,-111.258)">
        <g transform="matrix(238.06,0,0,238.06,97.2896,495.079)">
            <path d="M0.264,0.006C0.348,0.006 0.416,-0.04 0.447,-0.086C0.453,-0.094 0.457,-0.101 0.457,-0.109C0.457,-0.125 0.443,-0.139 0.426,-0.139C0.414,-0.139 0.405,-0.131 0.398,-0.121C0.37,-0.081 0.329,-0.052 0.264,-0.052C0.193,-0.052 0.107,-0.108 0.107,-0.213C0.107,-0.325 0.189,-0.435 0.271,-0.435C0.321,-0.435 0.348,-0.413 0.374,-0.382C0.38,-0.375 0.387,-0.371 0.397,-0.371C0.414,-0.371 0.427,-0.385 0.427,-0.402C0.427,-0.409 0.424,-0.418 0.419,-0.423C0.381,-0.467 0.343,-0.493 0.269,-0.493C0.153,-0.493 0.046,-0.349 0.046,-0.211C0.046,-0.088 0.146,0.006 0.264,0.006Z" style="fill:rgb(161,204,247);fill-rule:nonzero;"/>
        </g>
        <g transform="matrix(238.06,0,0,238.06,212.034,495.079)">
            <path d="M0.214,0.009C0.288,0.009 0.352,-0.033 0.378,-0.067L0.378,-0.029C0.378,-0.009 0.392,0.006 0.413,0.006C0.43,0.006 0.446,-0.009 0.446,-0.025L0.446,-0.466C0.446,-0.483 0.432,-0.494 0.416,-0.494C0.401,-0.494 0.386,-0.483 0.386,-0.466L0.382,-0.161C0.382,-0.149 0.382,-0.13 0.37,-0.116C0.35,-0.093 0.282,-0.047 0.215,-0.047C0.149,-0.047 0.124,-0.105 0.124,-0.244C0.124,-0.39 0.136,-0.43 0.136,-0.464C0.136,-0.483 0.123,-0.494 0.107,-0.494C0.088,-0.494 0.079,-0.483 0.075,-0.457C0.067,-0.41 0.062,-0.338 0.063,-0.244C0.065,-0.049 0.11,0.009 0.214,0.009Z" style="fill:rgb(161,204,247);fill-rule:nonzero;"/>
        </g>
        <g transform="matrix(238.06,0,0,238.06,333.683,495.079)">
            <path d="M0.135,0.007C0.151,0.007 0.166,-0.007 0.166,-0.023L0.166,-0.431L0.278,-0.431C0.296,-0.431 0.31,-0.446 0.31,-0.463C0.31,-0.481 0.296,-0.494 0.278,-0.494L0.166,-0.494L0.166,-0.631C0.166,-0.648 0.154,-0.663 0.135,-0.663C0.117,-0.663 0.103,-0.648 0.103,-0.631L0.103,-0.494L-0.006,-0.494C-0.023,-0.494 -0.039,-0.482 -0.039,-0.463C-0.039,-0.446 -0.025,-0.431 -0.008,-0.431L0.103,-0.431L0.103,-0.023C0.103,-0.007 0.118,0.007 0.135,0.007Z" style="fill:rgb(161,204,247);fill-rule:nonzero;"/>
        </g>
        <g transform="matrix(238.06,0,0,238.06,394.864,495.079)">
            <path d="M0.295,0.006C0.356,0.006 0.425,-0.026 0.46,-0.066C0.464,-0.071 0.468,-0.079 0.468,-0.086C0.468,-0.103 0.455,-0.116 0.438,-0.116C0.43,-0.116 0.422,-0.112 0.418,-0.106C0.391,-0.077 0.338,-0.052 0.294,-0.052C0.217,-0.052 0.159,-0.085 0.125,-0.149L0.435,-0.326C0.452,-0.336 0.459,-0.347 0.459,-0.358C0.459,-0.402 0.4,-0.493 0.271,-0.493C0.135,-0.493 0.046,-0.37 0.046,-0.234C0.046,-0.105 0.144,0.006 0.295,0.006ZM0.106,-0.205C0.104,-0.217 0.104,-0.226 0.104,-0.237C0.106,-0.346 0.174,-0.434 0.272,-0.434C0.341,-0.434 0.379,-0.41 0.397,-0.366L0.106,-0.205Z" style="fill:rgb(161,204,247);fill-rule:nonzero;"/>
        </g>
    </g>
    <g transform="matrix(1.19164,-0.515669,0.515669,1.19164,79.9789,22.129)">
        <g transform="matrix(238.06,0,0,238.06,97.2896,495.079)">
            <path d="M0.236,0.188C0.352,0.188 0.439,0.125 0.442,-0.016L0.453,-0.473C0.453,-0.492 0.438,-0.505 0.421,-0.505C0.397,-0.505 0.39,-0.487 0.39,-0.464C0.364,-0.478 0.328,-0.494 0.283,-0.494C0.148,-0.494 0.046,-0.368 0.046,-0.233C0.046,-0.096 0.132,0.005 0.245,0.005C0.299,0.004 0.347,-0.022 0.381,-0.068L0.379,-0.018C0.375,0.069 0.338,0.126 0.235,0.126C0.163,0.126 0.141,0.112 0.121,0.112C0.104,0.112 0.089,0.125 0.089,0.143C0.089,0.158 0.1,0.17 0.114,0.173C0.145,0.18 0.189,0.188 0.236,0.188ZM0.237,-0.055C0.143,-0.055 0.103,-0.157 0.103,-0.231C0.103,-0.346 0.186,-0.432 0.287,-0.432C0.324,-0.432 0.364,-0.419 0.385,-0.402L0.385,-0.261C0.385,-0.104 0.306,-0.055 0.237,-0.055Z" style="fill:rgb(230,230,230);fill-rule:nonzero;"/>
        </g>
        <g transform="matrix(238.06,0,0,238.06,223.461,495.079)">
            <path d="M0.117,-0.572C0.133,-0.572 0.148,-0.584 0.148,-0.602L0.149,-0.643C0.149,-0.658 0.135,-0.674 0.119,-0.674C0.103,-0.674 0.087,-0.66 0.087,-0.644L0.086,-0.603C0.086,-0.586 0.1,-0.572 0.117,-0.572ZM0.111,0.006C0.128,0.006 0.143,-0.009 0.143,-0.026L0.149,-0.46C0.149,-0.478 0.135,-0.493 0.117,-0.493C0.1,-0.493 0.084,-0.478 0.084,-0.46L0.078,-0.026C0.078,-0.009 0.093,0.006 0.111,0.006Z" style="fill:rgb(230,230,230);fill-rule:nonzero;"/>
        </g>
        <g transform="matrix(238.06,0,0,238.06,277.501,495.079)">
            <path d="M0.11,0.006C0.126,0.006 0.141,-0.008 0.141,-0.023L0.142,-0.244C0.142,-0.278 0.155,-0.323 0.176,-0.35C0.21,-0.395 0.253,-0.434 0.298,-0.434C0.325,-0.434 0.332,-0.421 0.332,-0.405L0.332,-0.382C0.332,-0.367 0.339,-0.351 0.361,-0.351C0.379,-0.351 0.392,-0.364 0.392,-0.381L0.392,-0.413C0.392,-0.451 0.374,-0.496 0.309,-0.496C0.226,-0.496 0.172,-0.431 0.142,-0.378L0.142,-0.463C0.142,-0.48 0.128,-0.493 0.11,-0.493C0.093,-0.493 0.078,-0.48 0.078,-0.463L0.078,-0.023C0.078,-0.008 0.094,0.006 0.11,0.006Z" style="fill:rgb(230,230,230);fill-rule:nonzero;"/>
        </g>
        <g transform="matrix(238.06,0,0,238.06,372.011,495.079)">
            <path d="M0.11,0.006C0.125,0.006 0.141,-0.007 0.141,-0.022L0.141,-0.651C0.141,-0.668 0.126,-0.681 0.11,-0.681C0.092,-0.681 0.078,-0.668 0.078,-0.651L0.078,-0.022C0.078,-0.007 0.094,0.006 0.11,0.006Z" style="fill:rgb(230,230,230);fill-rule:nonzero;"/>
        </g>
        <g transform="matrix(238.06,0,0,238.06,424.146,495.079)">
            <path d="M0.206,0.008C0.312,0.008 0.378,-0.067 0.378,-0.14C0.378,-0.216 0.338,-0.245 0.224,-0.283C0.145,-0.309 0.11,-0.328 0.11,-0.371C0.11,-0.413 0.15,-0.438 0.223,-0.438C0.291,-0.438 0.32,-0.415 0.32,-0.38C0.32,-0.371 0.317,-0.366 0.317,-0.358C0.317,-0.343 0.33,-0.33 0.348,-0.33C0.367,-0.33 0.379,-0.346 0.379,-0.379C0.379,-0.448 0.324,-0.493 0.223,-0.493C0.109,-0.493 0.051,-0.442 0.051,-0.372C0.051,-0.299 0.098,-0.26 0.204,-0.227C0.299,-0.199 0.319,-0.177 0.319,-0.137C0.319,-0.09 0.274,-0.049 0.209,-0.049C0.144,-0.049 0.1,-0.08 0.081,-0.133C0.077,-0.147 0.067,-0.154 0.053,-0.154C0.036,-0.154 0.023,-0.141 0.023,-0.124C0.023,-0.085 0.082,0.008 0.206,0.008Z" style="fill:rgb(230,230,230);fill-rule:nonzero;"/>
        </g>
    </g>
    <g transform="matrix(0.379151,-0.170368,0.195135,0.43427,213.119,733.118)">
        <path d="M448,219.141C542.316,52.741 727.108,27.408 825.263,112.703C920.198,195.2 965.471,369.096 825.263,499.2C754.815,564.572 622.375,643.381 514.154,755.449C497.52,772.634 472.369,781.704 446.693,779.776C421.017,777.848 398.009,765.163 384.98,745.751C301.216,620.855 139.468,520.854 70.737,434.133C-28.17,309.337 -20.096,191.527 70.737,112.703C190.899,8.427 384.186,46.969 448,219.141Z" style="fill:rgb(247,161,214);"/>
    </g>
</svg>
