<?xml version="1.0" encoding="UTF-8" standalone="no"?>
<!DOCTYPE svg PUBLIC "-//W3C//DTD SVG 1.1//EN" "http://www.w3.org/Graphics/SVG/1.1/DTD/svg11.dtd">
<svg width="100%" height="100%" viewBox="0 0 900 300" version="1.1" xmlns="http://www.w3.org/2000/svg" xmlns:xlink="http://www.w3.org/1999/xlink" xml:space="preserve" xmlns:serif="http://www.serif.com/" style="fill-rule:evenodd;clip-rule:evenodd;stroke-linejoin:round;stroke-miterlimit:2;">
    <g transform="matrix(1.21772,0,0,1.21772,-14.5846,-14.1783)">
        <g transform="matrix(125,0,0,125,9.33113,132.335)">
            <path d="M0.264,0.006C0.348,0.006 0.416,-0.04 0.447,-0.086C0.453,-0.094 0.457,-0.101 0.457,-0.109C0.457,-0.125 0.443,-0.139 0.426,-0.139C0.414,-0.139 0.405,-0.131 0.398,-0.121C0.37,-0.081 0.329,-0.052 0.264,-0.052C0.193,-0.052 0.107,-0.108 0.107,-0.213C0.107,-0.325 0.189,-0.435 0.271,-0.435C0.321,-0.435 0.348,-0.413 0.374,-0.382C0.38,-0.375 0.387,-0.371 0.397,-0.371C0.414,-0.371 0.427,-0.385 0.427,-0.402C0.427,-0.409 0.424,-0.418 0.419,-0.423C0.381,-0.467 0.343,-0.493 0.269,-0.493C0.153,-0.493 0.046,-0.349 0.046,-0.211C0.046,-0.088 0.146,0.006 0.264,0.006Z" style="fill:url(#_Linear1);fill-rule:nonzero;"/>
        </g>
        <g transform="matrix(125,0,0,125,69.5811,132.335)">
            <path d="M0.214,0.009C0.288,0.009 0.352,-0.033 0.378,-0.067L0.378,-0.029C0.378,-0.009 0.392,0.006 0.413,0.006C0.43,0.006 0.446,-0.009 0.446,-0.025L0.446,-0.466C0.446,-0.483 0.432,-0.494 0.416,-0.494C0.401,-0.494 0.386,-0.483 0.386,-0.466L0.382,-0.161C0.382,-0.149 0.382,-0.13 0.37,-0.116C0.35,-0.093 0.282,-0.047 0.215,-0.047C0.149,-0.047 0.124,-0.105 0.124,-0.244C0.124,-0.39 0.136,-0.43 0.136,-0.464C0.136,-0.483 0.123,-0.494 0.107,-0.494C0.088,-0.494 0.079,-0.483 0.075,-0.457C0.067,-0.41 0.062,-0.338 0.063,-0.244C0.065,-0.049 0.11,0.009 0.214,0.009Z" style="fill:url(#_Linear2);fill-rule:nonzero;"/>
        </g>
        <g transform="matrix(125,0,0,125,133.456,132.335)">
            <path d="M0.135,0.007C0.151,0.007 0.166,-0.007 0.166,-0.023L0.166,-0.431L0.278,-0.431C0.296,-0.431 0.31,-0.446 0.31,-0.463C0.31,-0.481 0.296,-0.494 0.278,-0.494L0.166,-0.494L0.166,-0.631C0.166,-0.648 0.154,-0.663 0.135,-0.663C0.117,-0.663 0.103,-0.648 0.103,-0.631L0.103,-0.494L-0.006,-0.494C-0.023,-0.494 -0.039,-0.482 -0.039,-0.463C-0.039,-0.446 -0.025,-0.431 -0.008,-0.431L0.103,-0.431L0.103,-0.023C0.103,-0.007 0.118,0.007 0.135,0.007Z" style="fill:url(#_Linear3);fill-rule:nonzero;"/>
        </g>
        <g transform="matrix(125,0,0,125,165.581,132.335)">
            <path d="M0.295,0.006C0.356,0.006 0.425,-0.026 0.46,-0.066C0.464,-0.071 0.468,-0.079 0.468,-0.086C0.468,-0.103 0.455,-0.116 0.438,-0.116C0.43,-0.116 0.422,-0.112 0.418,-0.106C0.391,-0.077 0.338,-0.052 0.294,-0.052C0.217,-0.052 0.159,-0.085 0.125,-0.149L0.435,-0.326C0.452,-0.336 0.459,-0.347 0.459,-0.358C0.459,-0.402 0.4,-0.493 0.271,-0.493C0.135,-0.493 0.046,-0.37 0.046,-0.234C0.046,-0.105 0.144,0.006 0.295,0.006ZM0.106,-0.205C0.104,-0.217 0.104,-0.226 0.104,-0.237C0.106,-0.346 0.174,-0.434 0.272,-0.434C0.341,-0.434 0.379,-0.41 0.397,-0.366L0.106,-0.205Z" style="fill:url(#_Linear4);fill-rule:nonzero;"/>
        </g>
        <g transform="matrix(125,0,0,125,269.956,132.335)">
            <path d="M0.236,0.188C0.352,0.188 0.439,0.125 0.442,-0.016L0.453,-0.473C0.453,-0.492 0.438,-0.505 0.421,-0.505C0.397,-0.505 0.39,-0.487 0.39,-0.464C0.364,-0.478 0.328,-0.494 0.283,-0.494C0.148,-0.494 0.046,-0.368 0.046,-0.233C0.046,-0.096 0.132,0.005 0.245,0.005C0.299,0.004 0.347,-0.022 0.381,-0.068L0.379,-0.018C0.375,0.069 0.338,0.126 0.235,0.126C0.163,0.126 0.141,0.112 0.121,0.112C0.104,0.112 0.089,0.125 0.089,0.143C0.089,0.158 0.1,0.17 0.114,0.173C0.145,0.18 0.189,0.188 0.236,0.188ZM0.237,-0.055C0.143,-0.055 0.103,-0.157 0.103,-0.231C0.103,-0.346 0.186,-0.432 0.287,-0.432C0.324,-0.432 0.364,-0.419 0.385,-0.402L0.385,-0.261C0.385,-0.104 0.306,-0.055 0.237,-0.055Z" style="fill:url(#_Linear5);fill-rule:nonzero;"/>
        </g>
        <g transform="matrix(125,0,0,125,336.206,132.335)">
            <path d="M0.117,-0.572C0.133,-0.572 0.148,-0.584 0.148,-0.602L0.149,-0.643C0.149,-0.658 0.135,-0.674 0.119,-0.674C0.103,-0.674 0.087,-0.66 0.087,-0.644L0.086,-0.603C0.086,-0.586 0.1,-0.572 0.117,-0.572ZM0.111,0.006C0.128,0.006 0.143,-0.009 0.143,-0.026L0.149,-0.46C0.149,-0.478 0.135,-0.493 0.117,-0.493C0.1,-0.493 0.084,-0.478 0.084,-0.46L0.078,-0.026C0.078,-0.009 0.093,0.006 0.111,0.006Z" style="fill:url(#_Linear6);fill-rule:nonzero;"/>
        </g>
        <g transform="matrix(125,0,0,125,364.581,132.335)">
            <path d="M0.11,0.006C0.126,0.006 0.141,-0.008 0.141,-0.023L0.142,-0.244C0.142,-0.278 0.155,-0.323 0.176,-0.35C0.21,-0.395 0.253,-0.434 0.298,-0.434C0.325,-0.434 0.332,-0.421 0.332,-0.405L0.332,-0.382C0.332,-0.367 0.339,-0.351 0.361,-0.351C0.379,-0.351 0.392,-0.364 0.392,-0.381L0.392,-0.413C0.392,-0.451 0.374,-0.496 0.309,-0.496C0.226,-0.496 0.172,-0.431 0.142,-0.378L0.142,-0.463C0.142,-0.48 0.128,-0.493 0.11,-0.493C0.093,-0.493 0.078,-0.48 0.078,-0.463L0.078,-0.023C0.078,-0.008 0.094,0.006 0.11,0.006Z" style="fill:url(#_Linear7);fill-rule:nonzero;"/>
        </g>
        <g transform="matrix(125,0,0,125,414.206,132.335)">
            <path d="M0.11,0.006C0.125,0.006 0.141,-0.007 0.141,-0.022L0.141,-0.651C0.141,-0.668 0.126,-0.681 0.11,-0.681C0.092,-0.681 0.078,-0.668 0.078,-0.651L0.078,-0.022C0.078,-0.007 0.094,0.006 0.11,0.006Z" style="fill:url(#_Linear8);fill-rule:nonzero;"/>
        </g>
        <g transform="matrix(125,0,0,125,441.581,132.335)">
            <path d="M0.206,0.008C0.312,0.008 0.378,-0.067 0.378,-0.14C0.378,-0.216 0.338,-0.245 0.224,-0.283C0.145,-0.309 0.11,-0.328 0.11,-0.371C0.11,-0.413 0.15,-0.438 0.223,-0.438C0.291,-0.438 0.32,-0.415 0.32,-0.38C0.32,-0.371 0.317,-0.366 0.317,-0.358C0.317,-0.343 0.33,-0.33 0.348,-0.33C0.367,-0.33 0.379,-0.346 0.379,-0.379C0.379,-0.448 0.324,-0.493 0.223,-0.493C0.109,-0.493 0.051,-0.442 0.051,-0.372C0.051,-0.299 0.098,-0.26 0.204,-0.227C0.299,-0.199 0.319,-0.177 0.319,-0.137C0.319,-0.09 0.274,-0.049 0.209,-0.049C0.144,-0.049 0.1,-0.08 0.081,-0.133C0.077,-0.147 0.067,-0.154 0.053,-0.154C0.036,-0.154 0.023,-0.141 0.023,-0.124C0.023,-0.085 0.082,0.008 0.206,0.008Z" style="fill:url(#_Linear9);fill-rule:nonzero;"/>
        </g>
        <g transform="matrix(125,0,0,125,535.331,132.335)">
            <path d="M0.264,0.006C0.348,0.006 0.416,-0.04 0.447,-0.086C0.453,-0.094 0.457,-0.101 0.457,-0.109C0.457,-0.125 0.443,-0.139 0.426,-0.139C0.414,-0.139 0.405,-0.131 0.398,-0.121C0.37,-0.081 0.329,-0.052 0.264,-0.052C0.193,-0.052 0.107,-0.108 0.107,-0.213C0.107,-0.325 0.189,-0.435 0.271,-0.435C0.321,-0.435 0.348,-0.413 0.374,-0.382C0.38,-0.375 0.387,-0.371 0.397,-0.371C0.414,-0.371 0.427,-0.385 0.427,-0.402C0.427,-0.409 0.424,-0.418 0.419,-0.423C0.381,-0.467 0.343,-0.493 0.269,-0.493C0.153,-0.493 0.046,-0.349 0.046,-0.211C0.046,-0.088 0.146,0.006 0.264,0.006Z" style="fill:url(#_Linear10);fill-rule:nonzero;"/>
        </g>
        <g transform="matrix(125,0,0,125,595.581,132.335)">
            <path d="M0.11,0.006C0.125,0.006 0.141,-0.007 0.141,-0.022L0.141,-0.651C0.141,-0.668 0.126,-0.681 0.11,-0.681C0.092,-0.681 0.078,-0.668 0.078,-0.651L0.078,-0.022C0.078,-0.007 0.094,0.006 0.11,0.006Z" style="fill:url(#_Linear11);fill-rule:nonzero;"/>
        </g>
        <g transform="matrix(125,0,0,125,622.956,132.335)">
            <path d="M0.214,0.009C0.288,0.009 0.352,-0.033 0.378,-0.067L0.378,-0.029C0.378,-0.009 0.392,0.006 0.413,0.006C0.43,0.006 0.446,-0.009 0.446,-0.025L0.446,-0.466C0.446,-0.483 0.432,-0.494 0.416,-0.494C0.401,-0.494 0.386,-0.483 0.386,-0.466L0.382,-0.161C0.382,-0.149 0.382,-0.13 0.37,-0.116C0.35,-0.093 0.282,-0.047 0.215,-0.047C0.149,-0.047 0.124,-0.105 0.124,-0.244C0.124,-0.39 0.136,-0.43 0.136,-0.464C0.136,-0.483 0.123,-0.494 0.107,-0.494C0.088,-0.494 0.079,-0.483 0.075,-0.457C0.067,-0.41 0.062,-0.338 0.063,-0.244C0.065,-0.049 0.11,0.009 0.214,0.009Z" style="fill:url(#_Linear12);fill-rule:nonzero;"/>
        </g>
        <g transform="matrix(125,0,0,125,686.831,132.335)">
            <path d="M0.109,0.006C0.126,0.006 0.139,-0.008 0.139,-0.021L0.139,-0.029C0.169,-0.016 0.222,-0.001 0.271,-0.001C0.422,-0.001 0.489,-0.114 0.489,-0.265C0.489,-0.401 0.418,-0.485 0.314,-0.485C0.247,-0.485 0.183,-0.457 0.14,-0.408L0.14,-0.653C0.14,-0.67 0.125,-0.681 0.11,-0.681C0.093,-0.681 0.078,-0.67 0.078,-0.653L0.078,-0.023C0.078,-0.007 0.093,0.006 0.109,0.006ZM0.263,-0.061C0.21,-0.061 0.158,-0.078 0.14,-0.086L0.14,-0.287C0.14,-0.362 0.216,-0.422 0.313,-0.422C0.382,-0.422 0.429,-0.366 0.429,-0.265C0.429,-0.142 0.385,-0.061 0.263,-0.061Z" style="fill:url(#_Linear13);fill-rule:nonzero;"/>
        </g>
    </g>
    <g transform="matrix(1,0,0,1,-57.8779,4.84567)">
        <g transform="matrix(58.3333,0,0,58.3333,131.945,252.054)">
            <path d="M0.407,0.014C0.425,0.014 0.438,-0.001 0.438,-0.019L0.438,-0.452C0.421,-0.46 0.359,-0.493 0.286,-0.493C0.131,-0.493 0.046,-0.341 0.046,-0.21C0.046,-0.081 0.127,0.006 0.235,0.006C0.288,0.006 0.341,-0.017 0.376,-0.047L0.376,-0.019C0.376,-0.001 0.386,0.014 0.407,0.014ZM0.235,-0.053C0.162,-0.053 0.11,-0.114 0.11,-0.212C0.11,-0.34 0.188,-0.434 0.288,-0.434C0.32,-0.434 0.359,-0.422 0.377,-0.414L0.373,-0.111C0.35,-0.088 0.293,-0.053 0.235,-0.053Z" style="fill:url(#_Linear14);fill-rule:nonzero;"/>
        </g>
        <g transform="matrix(58.3333,0,0,58.3333,181.528,252.054)">
            <path d="M0.264,0.006C0.348,0.006 0.416,-0.04 0.447,-0.086C0.453,-0.094 0.457,-0.101 0.457,-0.109C0.457,-0.125 0.443,-0.139 0.426,-0.139C0.414,-0.139 0.405,-0.131 0.398,-0.121C0.37,-0.081 0.329,-0.052 0.264,-0.052C0.193,-0.052 0.107,-0.108 0.107,-0.213C0.107,-0.325 0.189,-0.435 0.271,-0.435C0.321,-0.435 0.348,-0.413 0.374,-0.382C0.38,-0.375 0.387,-0.371 0.397,-0.371C0.414,-0.371 0.427,-0.385 0.427,-0.402C0.427,-0.409 0.424,-0.418 0.419,-0.423C0.381,-0.467 0.343,-0.493 0.269,-0.493C0.153,-0.493 0.046,-0.349 0.046,-0.211C0.046,-0.088 0.146,0.006 0.264,0.006Z" style="fill:url(#_Linear15);fill-rule:nonzero;"/>
        </g>
        <g transform="matrix(58.3333,0,0,58.3333,209.645,252.054)">
            <path d="M0.249,0.006C0.375,0.006 0.482,-0.117 0.482,-0.264C0.482,-0.392 0.394,-0.493 0.28,-0.493C0.145,-0.493 0.046,-0.359 0.046,-0.224C0.046,-0.095 0.134,0.006 0.249,0.006ZM0.253,-0.051C0.179,-0.051 0.111,-0.119 0.111,-0.226C0.111,-0.335 0.185,-0.436 0.275,-0.436C0.356,-0.436 0.418,-0.353 0.418,-0.259C0.418,-0.148 0.34,-0.051 0.253,-0.051Z" style="fill:url(#_Linear16);fill-rule:nonzero;"/>
        </g>
        <g transform="matrix(58.3333,0,0,58.3333,240.503,252.054)">
            <path d="M0.11,0.006C0.127,0.006 0.141,-0.008 0.141,-0.024L0.141,-0.173C0.141,-0.251 0.15,-0.285 0.186,-0.336C0.221,-0.385 0.273,-0.434 0.322,-0.434C0.376,-0.434 0.399,-0.399 0.399,-0.315L0.399,-0.024C0.399,-0.008 0.414,0.006 0.431,0.006C0.449,0.006 0.462,-0.008 0.462,-0.024L0.462,-0.25C0.462,-0.365 0.562,-0.434 0.617,-0.434C0.668,-0.434 0.696,-0.4 0.696,-0.315L0.696,-0.024C0.696,-0.008 0.71,0.006 0.727,0.006C0.744,0.006 0.759,-0.008 0.759,-0.024L0.759,-0.308C0.759,-0.442 0.701,-0.493 0.625,-0.493C0.571,-0.493 0.506,-0.463 0.455,-0.38C0.436,-0.47 0.379,-0.493 0.33,-0.493C0.262,-0.493 0.185,-0.434 0.141,-0.347L0.141,-0.462C0.141,-0.478 0.128,-0.493 0.11,-0.493C0.093,-0.493 0.078,-0.478 0.078,-0.462L0.078,-0.024C0.078,-0.008 0.093,0.006 0.11,0.006Z" style="fill:url(#_Linear17);fill-rule:nonzero;"/>
        </g>
        <g transform="matrix(58.3333,0,0,58.3333,288.745,252.054)">
            <path d="M0.118,0.006C0.134,0.006 0.149,-0.008 0.149,-0.023L0.149,-0.436L0.281,-0.436C0.297,-0.436 0.31,-0.45 0.31,-0.466C0.31,-0.481 0.294,-0.494 0.281,-0.494L0.149,-0.495C0.15,-0.607 0.186,-0.622 0.3,-0.622C0.319,-0.622 0.33,-0.637 0.33,-0.653C0.33,-0.676 0.312,-0.682 0.288,-0.682C0.148,-0.682 0.088,-0.636 0.087,-0.495L0.014,-0.495C0.001,-0.495 -0.013,-0.481 -0.013,-0.466C-0.013,-0.45 0.001,-0.436 0.016,-0.436L0.086,-0.436L0.086,-0.023C0.086,-0.008 0.101,0.006 0.118,0.006Z" style="fill:url(#_Linear18);fill-rule:nonzero;"/>
        </g>
        <g transform="matrix(58.3333,0,0,58.3333,305.02,252.054)">
            <path d="M0.125,0.2C0.139,0.2 0.149,0.191 0.155,0.18L0.444,-0.45C0.447,-0.455 0.447,-0.458 0.447,-0.464C0.447,-0.482 0.433,-0.495 0.416,-0.495C0.401,-0.495 0.391,-0.485 0.386,-0.475L0.229,-0.132L0.059,-0.473C0.054,-0.484 0.043,-0.494 0.029,-0.494C0.011,-0.494 -0.003,-0.48 -0.003,-0.462C-0.003,-0.456 -0.001,-0.45 0.001,-0.445L0.195,-0.058L0.098,0.154C0.095,0.159 0.094,0.164 0.094,0.168C0.094,0.186 0.108,0.2 0.125,0.2Z" style="fill:url(#_Linear19);fill-rule:nonzero;"/>
        </g>
        <g transform="matrix(58.3333,0,0,58.3333,350.578,252.054)">
            <path d="M0.118,0.006C0.134,0.006 0.149,-0.008 0.149,-0.023L0.149,-0.436L0.281,-0.436C0.297,-0.436 0.31,-0.45 0.31,-0.466C0.31,-0.481 0.294,-0.494 0.281,-0.494L0.149,-0.495C0.15,-0.607 0.186,-0.622 0.3,-0.622C0.319,-0.622 0.33,-0.637 0.33,-0.653C0.33,-0.676 0.312,-0.682 0.288,-0.682C0.148,-0.682 0.088,-0.636 0.087,-0.495L0.014,-0.495C0.001,-0.495 -0.013,-0.481 -0.013,-0.466C-0.013,-0.45 0.001,-0.436 0.016,-0.436L0.086,-0.436L0.086,-0.023C0.086,-0.008 0.101,0.006 0.118,0.006Z" style="fill:url(#_Linear20);fill-rule:nonzero;"/>
        </g>
        <g transform="matrix(58.3333,0,0,58.3333,366.853,252.054)">
            <path d="M0.11,0.006C0.126,0.006 0.141,-0.008 0.141,-0.023L0.142,-0.244C0.142,-0.278 0.155,-0.323 0.176,-0.35C0.21,-0.395 0.253,-0.434 0.298,-0.434C0.325,-0.434 0.332,-0.421 0.332,-0.405L0.332,-0.382C0.332,-0.367 0.339,-0.351 0.361,-0.351C0.379,-0.351 0.392,-0.364 0.392,-0.381L0.392,-0.413C0.392,-0.451 0.374,-0.496 0.309,-0.496C0.226,-0.496 0.172,-0.431 0.142,-0.378L0.142,-0.463C0.142,-0.48 0.128,-0.493 0.11,-0.493C0.093,-0.493 0.078,-0.48 0.078,-0.463L0.078,-0.023C0.078,-0.008 0.094,0.006 0.11,0.006Z" style="fill:url(#_Linear21);fill-rule:nonzero;"/>
        </g>
        <g transform="matrix(58.3333,0,0,58.3333,390.012,252.054)">
            <path d="M0.117,-0.572C0.133,-0.572 0.148,-0.584 0.148,-0.602L0.149,-0.643C0.149,-0.658 0.135,-0.674 0.119,-0.674C0.103,-0.674 0.087,-0.66 0.087,-0.644L0.086,-0.603C0.086,-0.586 0.1,-0.572 0.117,-0.572ZM0.111,0.006C0.128,0.006 0.143,-0.009 0.143,-0.026L0.149,-0.46C0.149,-0.478 0.135,-0.493 0.117,-0.493C0.1,-0.493 0.084,-0.478 0.084,-0.46L0.078,-0.026C0.078,-0.009 0.093,0.006 0.111,0.006Z" style="fill:url(#_Linear22);fill-rule:nonzero;"/>
        </g>
        <g transform="matrix(58.3333,0,0,58.3333,403.253,252.054)">
            <path d="M0.295,0.006C0.356,0.006 0.425,-0.026 0.46,-0.066C0.464,-0.071 0.468,-0.079 0.468,-0.086C0.468,-0.103 0.455,-0.116 0.438,-0.116C0.43,-0.116 0.422,-0.112 0.418,-0.106C0.391,-0.077 0.338,-0.052 0.294,-0.052C0.217,-0.052 0.159,-0.085 0.125,-0.149L0.435,-0.326C0.452,-0.336 0.459,-0.347 0.459,-0.358C0.459,-0.402 0.4,-0.493 0.271,-0.493C0.135,-0.493 0.046,-0.37 0.046,-0.234C0.046,-0.105 0.144,0.006 0.295,0.006ZM0.106,-0.205C0.104,-0.217 0.104,-0.226 0.104,-0.237C0.106,-0.346 0.174,-0.434 0.272,-0.434C0.341,-0.434 0.379,-0.41 0.397,-0.366L0.106,-0.205Z" style="fill:url(#_Linear23);fill-rule:nonzero;"/>
        </g>
        <g transform="matrix(58.3333,0,0,58.3333,432.478,252.054)">
            <path d="M0.11,0.006C0.128,0.006 0.14,-0.009 0.14,-0.027L0.141,-0.116C0.142,-0.189 0.159,-0.256 0.204,-0.338C0.238,-0.4 0.285,-0.434 0.329,-0.434C0.396,-0.434 0.423,-0.398 0.423,-0.21C0.423,-0.111 0.424,-0.07 0.424,-0.025C0.424,-0.009 0.438,0.006 0.454,0.006C0.472,0.006 0.484,-0.009 0.484,-0.026C0.484,-0.072 0.485,-0.112 0.485,-0.214C0.485,-0.414 0.447,-0.493 0.338,-0.493C0.251,-0.493 0.18,-0.426 0.141,-0.306L0.141,-0.464C0.141,-0.481 0.127,-0.494 0.11,-0.494C0.093,-0.494 0.078,-0.481 0.078,-0.464L0.078,-0.023C0.078,-0.008 0.093,0.006 0.11,0.006Z" style="fill:url(#_Linear24);fill-rule:nonzero;"/>
        </g>
        <g transform="matrix(58.3333,0,0,58.3333,464.737,252.054)">
            <path d="M0.22,0.006C0.295,0.006 0.35,-0.036 0.385,-0.07L0.384,-0.029C0.383,-0.011 0.396,0.006 0.415,0.006C0.432,0.006 0.447,-0.007 0.447,-0.024L0.462,-0.655C0.462,-0.673 0.447,-0.688 0.431,-0.688C0.414,-0.688 0.398,-0.674 0.398,-0.656L0.393,-0.457C0.361,-0.474 0.314,-0.492 0.26,-0.492C0.127,-0.492 0.046,-0.392 0.046,-0.22C0.046,-0.078 0.122,0.006 0.22,0.006ZM0.221,-0.053C0.153,-0.053 0.108,-0.115 0.108,-0.223C0.108,-0.353 0.159,-0.432 0.263,-0.432C0.318,-0.432 0.373,-0.406 0.392,-0.395L0.387,-0.164C0.386,-0.127 0.32,-0.053 0.221,-0.053Z" style="fill:url(#_Linear25);fill-rule:nonzero;"/>
        </g>
        <g transform="matrix(58.3333,0,0,58.3333,515.137,252.054)">
            <path d="M0.206,0.008C0.312,0.008 0.378,-0.067 0.378,-0.14C0.378,-0.216 0.338,-0.245 0.224,-0.283C0.145,-0.309 0.11,-0.328 0.11,-0.371C0.11,-0.413 0.15,-0.438 0.223,-0.438C0.291,-0.438 0.32,-0.415 0.32,-0.38C0.32,-0.371 0.317,-0.366 0.317,-0.358C0.317,-0.343 0.33,-0.33 0.348,-0.33C0.367,-0.33 0.379,-0.346 0.379,-0.379C0.379,-0.448 0.324,-0.493 0.223,-0.493C0.109,-0.493 0.051,-0.442 0.051,-0.372C0.051,-0.299 0.098,-0.26 0.204,-0.227C0.299,-0.199 0.319,-0.177 0.319,-0.137C0.319,-0.09 0.274,-0.049 0.209,-0.049C0.144,-0.049 0.1,-0.08 0.081,-0.133C0.077,-0.147 0.067,-0.154 0.053,-0.154C0.036,-0.154 0.023,-0.141 0.023,-0.124C0.023,-0.085 0.082,0.008 0.206,0.008Z" style="fill:url(#_Linear26);fill-rule:nonzero;"/>
        </g>
        <g transform="matrix(58.3333,0,0,58.3333,539.403,252.054)">
            <path d="M0.11,0.198C0.126,0.198 0.141,0.183 0.141,0.167L0.141,-0.03C0.172,-0.017 0.216,-0.002 0.265,-0.002C0.442,-0.002 0.485,-0.156 0.485,-0.27C0.485,-0.382 0.428,-0.494 0.323,-0.494C0.234,-0.494 0.178,-0.465 0.141,-0.421L0.141,-0.462C0.141,-0.48 0.127,-0.494 0.11,-0.494C0.092,-0.494 0.078,-0.48 0.078,-0.462L0.078,0.167C0.078,0.183 0.093,0.198 0.11,0.198ZM0.271,-0.065C0.216,-0.065 0.161,-0.088 0.141,-0.097L0.141,-0.354C0.158,-0.379 0.214,-0.438 0.315,-0.438C0.401,-0.438 0.428,-0.336 0.428,-0.27C0.428,-0.15 0.385,-0.065 0.271,-0.065Z" style="fill:url(#_Linear27);fill-rule:nonzero;"/>
        </g>
        <g transform="matrix(58.3333,0,0,58.3333,570.378,252.054)">
            <path d="M0.407,0.014C0.425,0.014 0.438,-0.001 0.438,-0.019L0.438,-0.452C0.421,-0.46 0.359,-0.493 0.286,-0.493C0.131,-0.493 0.046,-0.341 0.046,-0.21C0.046,-0.081 0.127,0.006 0.235,0.006C0.288,0.006 0.341,-0.017 0.376,-0.047L0.376,-0.019C0.376,-0.001 0.386,0.014 0.407,0.014ZM0.235,-0.053C0.162,-0.053 0.11,-0.114 0.11,-0.212C0.11,-0.34 0.188,-0.434 0.288,-0.434C0.32,-0.434 0.359,-0.422 0.377,-0.414L0.373,-0.111C0.35,-0.088 0.293,-0.053 0.235,-0.053Z" style="fill:url(#_Linear28);fill-rule:nonzero;"/>
        </g>
        <g transform="matrix(58.3333,0,0,58.3333,600.478,252.054)">
            <path d="M0.264,0.006C0.348,0.006 0.416,-0.04 0.447,-0.086C0.453,-0.094 0.457,-0.101 0.457,-0.109C0.457,-0.125 0.443,-0.139 0.426,-0.139C0.414,-0.139 0.405,-0.131 0.398,-0.121C0.37,-0.081 0.329,-0.052 0.264,-0.052C0.193,-0.052 0.107,-0.108 0.107,-0.213C0.107,-0.325 0.189,-0.435 0.271,-0.435C0.321,-0.435 0.348,-0.413 0.374,-0.382C0.38,-0.375 0.387,-0.371 0.397,-0.371C0.414,-0.371 0.427,-0.385 0.427,-0.402C0.427,-0.409 0.424,-0.418 0.419,-0.423C0.381,-0.467 0.343,-0.493 0.269,-0.493C0.153,-0.493 0.046,-0.349 0.046,-0.211C0.046,-0.088 0.146,0.006 0.264,0.006Z" style="fill:url(#_Linear29);fill-rule:nonzero;"/>
        </g>
        <g transform="matrix(58.3333,0,0,58.3333,628.595,252.054)">
            <path d="M0.295,0.006C0.356,0.006 0.425,-0.026 0.46,-0.066C0.464,-0.071 0.468,-0.079 0.468,-0.086C0.468,-0.103 0.455,-0.116 0.438,-0.116C0.43,-0.116 0.422,-0.112 0.418,-0.106C0.391,-0.077 0.338,-0.052 0.294,-0.052C0.217,-0.052 0.159,-0.085 0.125,-0.149L0.435,-0.326C0.452,-0.336 0.459,-0.347 0.459,-0.358C0.459,-0.402 0.4,-0.493 0.271,-0.493C0.135,-0.493 0.046,-0.37 0.046,-0.234C0.046,-0.105 0.144,0.006 0.295,0.006ZM0.106,-0.205C0.104,-0.217 0.104,-0.226 0.104,-0.237C0.106,-0.346 0.174,-0.434 0.272,-0.434C0.341,-0.434 0.379,-0.41 0.397,-0.366L0.106,-0.205Z" style="fill:url(#_Linear30);fill-rule:nonzero;"/>
        </g>
        <g transform="matrix(58.3333,0,0,58.3333,677.303,252.054)">
            <path d="M0.259,0.112C0.273,0.112 0.289,0.099 0.289,0.082C0.289,0.071 0.285,0.065 0.279,0.059C0.195,-0.036 0.123,-0.179 0.123,-0.344C0.123,-0.529 0.228,-0.671 0.292,-0.729C0.3,-0.736 0.303,-0.744 0.303,-0.753C0.303,-0.77 0.288,-0.785 0.272,-0.785C0.265,-0.785 0.257,-0.781 0.246,-0.772C0.135,-0.667 0.06,-0.513 0.06,-0.344C0.06,-0.129 0.164,0.019 0.231,0.099C0.237,0.106 0.245,0.112 0.259,0.112Z" style="fill:url(#_Linear31);fill-rule:nonzero;"/>
        </g>
        <g transform="matrix(58.3333,0,0,58.3333,697.487,252.054)">
            <path d="M0.123,-0.437C0.138,-0.437 0.153,-0.45 0.17,-0.471C0.182,-0.488 0.191,-0.508 0.197,-0.525C0.203,-0.51 0.21,-0.492 0.224,-0.471C0.24,-0.448 0.252,-0.437 0.27,-0.437C0.287,-0.437 0.299,-0.451 0.299,-0.468C0.299,-0.481 0.292,-0.496 0.272,-0.514C0.255,-0.53 0.24,-0.541 0.23,-0.547C0.253,-0.551 0.268,-0.551 0.293,-0.559C0.317,-0.566 0.33,-0.577 0.33,-0.597C0.33,-0.613 0.317,-0.626 0.299,-0.626C0.279,-0.626 0.243,-0.604 0.217,-0.584C0.221,-0.595 0.229,-0.626 0.229,-0.654C0.229,-0.679 0.215,-0.693 0.196,-0.693C0.178,-0.693 0.163,-0.679 0.163,-0.653C0.163,-0.625 0.171,-0.597 0.178,-0.584C0.171,-0.589 0.15,-0.605 0.136,-0.613C0.121,-0.623 0.108,-0.628 0.094,-0.628C0.075,-0.628 0.063,-0.613 0.063,-0.597C0.063,-0.582 0.074,-0.568 0.101,-0.56C0.127,-0.553 0.15,-0.549 0.165,-0.547C0.151,-0.539 0.132,-0.526 0.115,-0.507C0.098,-0.49 0.093,-0.478 0.093,-0.465C0.093,-0.449 0.107,-0.437 0.123,-0.437Z" style="fill:url(#_Linear32);fill-rule:nonzero;"/>
        </g>
        <g transform="matrix(58.3333,0,0,58.3333,720.47,252.054)">
            <path d="M0.129,-0.383C0.141,-0.383 0.151,-0.39 0.16,-0.404L0.259,-0.569L0.344,-0.399C0.348,-0.389 0.36,-0.383 0.37,-0.383C0.387,-0.383 0.401,-0.397 0.401,-0.413C0.401,-0.418 0.4,-0.424 0.396,-0.431L0.295,-0.631C0.287,-0.646 0.275,-0.655 0.26,-0.655C0.244,-0.655 0.233,-0.645 0.225,-0.633L0.103,-0.429C0.1,-0.424 0.099,-0.418 0.099,-0.413C0.099,-0.397 0.112,-0.383 0.129,-0.383Z" style="fill:url(#_Linear33);fill-rule:nonzero;"/>
        </g>
        <g transform="matrix(58.3333,0,0,58.3333,749.87,252.054)">
            <path d="M0.018,-0.077C0.118,-0.025 0.192,0.008 0.238,0.023C0.308,0.046 0.39,0.057 0.484,0.057C0.578,0.057 0.665,0.044 0.743,0.018C0.791,0.001 0.86,-0.031 0.951,-0.079L0.951,-0.02C0.871,0.031 0.821,0.061 0.802,0.072C0.784,0.082 0.758,0.094 0.725,0.106C0.684,0.122 0.644,0.133 0.604,0.139C0.565,0.146 0.527,0.149 0.49,0.149C0.393,0.149 0.307,0.134 0.232,0.104C0.183,0.084 0.112,0.044 0.018,-0.016L0.018,-0.077Z" style="fill:url(#_Linear34);fill-rule:nonzero;"/>
        </g>
        <g transform="matrix(58.3333,0,0,58.3333,806.551,252.054)">
            <path d="M0.129,-0.383C0.141,-0.383 0.151,-0.39 0.16,-0.404L0.259,-0.569L0.344,-0.399C0.348,-0.389 0.36,-0.383 0.37,-0.383C0.387,-0.383 0.401,-0.397 0.401,-0.413C0.401,-0.418 0.4,-0.424 0.396,-0.431L0.295,-0.631C0.287,-0.646 0.275,-0.655 0.26,-0.655C0.244,-0.655 0.233,-0.645 0.225,-0.633L0.103,-0.429C0.1,-0.424 0.099,-0.418 0.099,-0.413C0.099,-0.397 0.112,-0.383 0.129,-0.383Z" style="fill:url(#_Linear35);fill-rule:nonzero;"/>
        </g>
        <g transform="matrix(58.3333,0,0,58.3333,835.951,252.054)">
            <path d="M0.123,-0.437C0.138,-0.437 0.153,-0.45 0.17,-0.471C0.182,-0.488 0.191,-0.508 0.197,-0.525C0.203,-0.51 0.21,-0.492 0.224,-0.471C0.24,-0.448 0.252,-0.437 0.27,-0.437C0.287,-0.437 0.299,-0.451 0.299,-0.468C0.299,-0.481 0.292,-0.496 0.272,-0.514C0.255,-0.53 0.24,-0.541 0.23,-0.547C0.253,-0.551 0.268,-0.551 0.293,-0.559C0.317,-0.566 0.33,-0.577 0.33,-0.597C0.33,-0.613 0.317,-0.626 0.299,-0.626C0.279,-0.626 0.243,-0.604 0.217,-0.584C0.221,-0.595 0.229,-0.626 0.229,-0.654C0.229,-0.679 0.215,-0.693 0.196,-0.693C0.178,-0.693 0.163,-0.679 0.163,-0.653C0.163,-0.625 0.171,-0.597 0.178,-0.584C0.171,-0.589 0.15,-0.605 0.136,-0.613C0.121,-0.623 0.108,-0.628 0.094,-0.628C0.075,-0.628 0.063,-0.613 0.063,-0.597C0.063,-0.582 0.074,-0.568 0.101,-0.56C0.127,-0.553 0.15,-0.549 0.165,-0.547C0.151,-0.539 0.132,-0.526 0.115,-0.507C0.098,-0.49 0.093,-0.478 0.093,-0.465C0.093,-0.449 0.107,-0.437 0.123,-0.437Z" style="fill:url(#_Linear36);fill-rule:nonzero;"/>
        </g>
        <g transform="matrix(58.3333,0,0,58.3333,858.935,252.054)">
            <path d="M0.088,0.112C0.101,0.112 0.11,0.106 0.115,0.099C0.206,-0.007 0.286,-0.158 0.286,-0.344C0.286,-0.513 0.211,-0.667 0.1,-0.772C0.089,-0.781 0.081,-0.785 0.075,-0.785C0.058,-0.785 0.043,-0.77 0.043,-0.753C0.043,-0.744 0.048,-0.736 0.055,-0.729C0.138,-0.651 0.224,-0.512 0.224,-0.344C0.224,-0.177 0.143,-0.022 0.067,0.059C0.06,0.065 0.057,0.073 0.057,0.082C0.057,0.099 0.073,0.112 0.088,0.112Z" style="fill:url(#_Linear37);fill-rule:nonzero;"/>
        </g>
    </g>
    <defs>
        <linearGradient id="_Linear1" x1="0" y1="0" x2="1" y2="0" gradientUnits="userSpaceOnUse" gradientTransform="matrix(-0.00108067,0.985068,-0.985068,-0.00108067,3.60485,-0.836933)"><stop offset="0" style="stop-color:white;stop-opacity:1"/><stop offset="1" style="stop-color:rgb(255,131,193);stop-opacity:1"/></linearGradient>
        <linearGradient id="_Linear2" x1="0" y1="0" x2="1" y2="0" gradientUnits="userSpaceOnUse" gradientTransform="matrix(-0.00108067,0.985068,-0.985068,-0.00108067,3.12285,-0.836933)"><stop offset="0" style="stop-color:white;stop-opacity:1"/><stop offset="1" style="stop-color:rgb(255,131,193);stop-opacity:1"/></linearGradient>
        <linearGradient id="_Linear3" x1="0" y1="0" x2="1" y2="0" gradientUnits="userSpaceOnUse" gradientTransform="matrix(-0.00108067,0.985068,-0.985068,-0.00108067,2.61185,-0.836933)"><stop offset="0" style="stop-color:white;stop-opacity:1"/><stop offset="1" style="stop-color:rgb(255,131,193);stop-opacity:1"/></linearGradient>
        <linearGradient id="_Linear4" x1="0" y1="0" x2="1" y2="0" gradientUnits="userSpaceOnUse" gradientTransform="matrix(-0.00108067,0.985068,-0.985068,-0.00108067,2.35485,-0.836933)"><stop offset="0" style="stop-color:white;stop-opacity:1"/><stop offset="1" style="stop-color:rgb(255,131,193);stop-opacity:1"/></linearGradient>
        <linearGradient id="_Linear5" x1="0" y1="0" x2="1" y2="0" gradientUnits="userSpaceOnUse" gradientTransform="matrix(-0.00108067,0.985068,-0.985068,-0.00108067,1.51985,-0.836933)"><stop offset="0" style="stop-color:white;stop-opacity:1"/><stop offset="1" style="stop-color:rgb(255,131,193);stop-opacity:1"/></linearGradient>
        <linearGradient id="_Linear6" x1="0" y1="0" x2="1" y2="0" gradientUnits="userSpaceOnUse" gradientTransform="matrix(-0.00108067,0.985068,-0.985068,-0.00108067,0.989849,-0.836933)"><stop offset="0" style="stop-color:white;stop-opacity:1"/><stop offset="1" style="stop-color:rgb(255,131,193);stop-opacity:1"/></linearGradient>
        <linearGradient id="_Linear7" x1="0" y1="0" x2="1" y2="0" gradientUnits="userSpaceOnUse" gradientTransform="matrix(-0.00108067,0.985068,-0.985068,-0.00108067,0.762849,-0.836933)"><stop offset="0" style="stop-color:white;stop-opacity:1"/><stop offset="1" style="stop-color:rgb(255,131,193);stop-opacity:1"/></linearGradient>
        <linearGradient id="_Linear8" x1="0" y1="0" x2="1" y2="0" gradientUnits="userSpaceOnUse" gradientTransform="matrix(-0.00108067,0.985068,-0.985068,-0.00108067,0.365849,-0.836933)"><stop offset="0" style="stop-color:white;stop-opacity:1"/><stop offset="1" style="stop-color:rgb(255,131,193);stop-opacity:1"/></linearGradient>
        <linearGradient id="_Linear9" x1="0" y1="0" x2="1" y2="0" gradientUnits="userSpaceOnUse" gradientTransform="matrix(-0.00108067,0.985068,-0.985068,-0.00108067,0.146849,-0.836933)"><stop offset="0" style="stop-color:white;stop-opacity:1"/><stop offset="1" style="stop-color:rgb(255,131,193);stop-opacity:1"/></linearGradient>
        <linearGradient id="_Linear10" x1="0" y1="0" x2="1" y2="0" gradientUnits="userSpaceOnUse" gradientTransform="matrix(-0.00108067,0.985068,-0.985068,-0.00108067,-0.603151,-0.836933)"><stop offset="0" style="stop-color:white;stop-opacity:1"/><stop offset="1" style="stop-color:rgb(255,131,193);stop-opacity:1"/></linearGradient>
        <linearGradient id="_Linear11" x1="0" y1="0" x2="1" y2="0" gradientUnits="userSpaceOnUse" gradientTransform="matrix(-0.00108067,0.985068,-0.985068,-0.00108067,-1.08515,-0.836933)"><stop offset="0" style="stop-color:white;stop-opacity:1"/><stop offset="1" style="stop-color:rgb(255,131,193);stop-opacity:1"/></linearGradient>
        <linearGradient id="_Linear12" x1="0" y1="0" x2="1" y2="0" gradientUnits="userSpaceOnUse" gradientTransform="matrix(-0.00108067,0.985068,-0.985068,-0.00108067,-1.30415,-0.836933)"><stop offset="0" style="stop-color:white;stop-opacity:1"/><stop offset="1" style="stop-color:rgb(255,131,193);stop-opacity:1"/></linearGradient>
        <linearGradient id="_Linear13" x1="0" y1="0" x2="1" y2="0" gradientUnits="userSpaceOnUse" gradientTransform="matrix(-0.00108067,0.985068,-0.985068,-0.00108067,-1.81515,-0.836933)"><stop offset="0" style="stop-color:white;stop-opacity:1"/><stop offset="1" style="stop-color:rgb(255,131,193);stop-opacity:1"/></linearGradient>
        <linearGradient id="_Linear14" x1="0" y1="0" x2="1" y2="0" gradientUnits="userSpaceOnUse" gradientTransform="matrix(-0.00148067,1.34969,-1.34969,-0.00148067,3.06391,-2.99957)"><stop offset="0" style="stop-color:white;stop-opacity:1"/><stop offset="1" style="stop-color:rgb(255,131,193);stop-opacity:1"/></linearGradient>
        <linearGradient id="_Linear15" x1="0" y1="0" x2="1" y2="0" gradientUnits="userSpaceOnUse" gradientTransform="matrix(-0.00148067,1.34969,-1.34969,-0.00148067,2.21391,-2.99957)"><stop offset="0" style="stop-color:white;stop-opacity:1"/><stop offset="1" style="stop-color:rgb(255,131,193);stop-opacity:1"/></linearGradient>
        <linearGradient id="_Linear16" x1="0" y1="0" x2="1" y2="0" gradientUnits="userSpaceOnUse" gradientTransform="matrix(-0.00148067,1.34969,-1.34969,-0.00148067,1.73191,-2.99957)"><stop offset="0" style="stop-color:white;stop-opacity:1"/><stop offset="1" style="stop-color:rgb(255,131,193);stop-opacity:1"/></linearGradient>
        <linearGradient id="_Linear17" x1="0" y1="0" x2="1" y2="0" gradientUnits="userSpaceOnUse" gradientTransform="matrix(-0.00148067,1.34969,-1.34969,-0.00148067,1.20291,-2.99957)"><stop offset="0" style="stop-color:white;stop-opacity:1"/><stop offset="1" style="stop-color:rgb(255,131,193);stop-opacity:1"/></linearGradient>
        <linearGradient id="_Linear18" x1="0" y1="0" x2="1" y2="0" gradientUnits="userSpaceOnUse" gradientTransform="matrix(-0.00148067,1.34969,-1.34969,-0.00148067,0.375907,-2.99957)"><stop offset="0" style="stop-color:white;stop-opacity:1"/><stop offset="1" style="stop-color:rgb(255,131,193);stop-opacity:1"/></linearGradient>
        <linearGradient id="_Linear19" x1="0" y1="0" x2="1" y2="0" gradientUnits="userSpaceOnUse" gradientTransform="matrix(-0.00148067,1.34969,-1.34969,-0.00148067,0.0969066,-2.99957)"><stop offset="0" style="stop-color:white;stop-opacity:1"/><stop offset="1" style="stop-color:rgb(255,131,193);stop-opacity:1"/></linearGradient>
        <linearGradient id="_Linear20" x1="0" y1="0" x2="1" y2="0" gradientUnits="userSpaceOnUse" gradientTransform="matrix(-0.00148067,1.34969,-1.34969,-0.00148067,-0.684093,-2.99957)"><stop offset="0" style="stop-color:white;stop-opacity:1"/><stop offset="1" style="stop-color:rgb(255,131,193);stop-opacity:1"/></linearGradient>
        <linearGradient id="_Linear21" x1="0" y1="0" x2="1" y2="0" gradientUnits="userSpaceOnUse" gradientTransform="matrix(-0.00148067,1.34969,-1.34969,-0.00148067,-0.963093,-2.99957)"><stop offset="0" style="stop-color:white;stop-opacity:1"/><stop offset="1" style="stop-color:rgb(255,131,193);stop-opacity:1"/></linearGradient>
        <linearGradient id="_Linear22" x1="0" y1="0" x2="1" y2="0" gradientUnits="userSpaceOnUse" gradientTransform="matrix(-0.00148067,1.34969,-1.34969,-0.00148067,-1.36009,-2.99957)"><stop offset="0" style="stop-color:white;stop-opacity:1"/><stop offset="1" style="stop-color:rgb(255,131,193);stop-opacity:1"/></linearGradient>
        <linearGradient id="_Linear23" x1="0" y1="0" x2="1" y2="0" gradientUnits="userSpaceOnUse" gradientTransform="matrix(-0.00148067,1.34969,-1.34969,-0.00148067,-1.58709,-2.99957)"><stop offset="0" style="stop-color:white;stop-opacity:1"/><stop offset="1" style="stop-color:rgb(255,131,193);stop-opacity:1"/></linearGradient>
        <linearGradient id="_Linear24" x1="0" y1="0" x2="1" y2="0" gradientUnits="userSpaceOnUse" gradientTransform="matrix(-0.00148067,1.34969,-1.34969,-0.00148067,-2.08809,-2.99957)"><stop offset="0" style="stop-color:white;stop-opacity:1"/><stop offset="1" style="stop-color:rgb(255,131,193);stop-opacity:1"/></linearGradient>
        <linearGradient id="_Linear25" x1="0" y1="0" x2="1" y2="0" gradientUnits="userSpaceOnUse" gradientTransform="matrix(-0.00148067,1.34969,-1.34969,-0.00148067,-2.64109,-2.99957)"><stop offset="0" style="stop-color:white;stop-opacity:1"/><stop offset="1" style="stop-color:rgb(255,131,193);stop-opacity:1"/></linearGradient>
        <linearGradient id="_Linear26" x1="0" y1="0" x2="1" y2="0" gradientUnits="userSpaceOnUse" gradientTransform="matrix(-0.00148067,1.34969,-1.34969,-0.00148067,-3.50509,-2.99957)"><stop offset="0" style="stop-color:white;stop-opacity:1"/><stop offset="1" style="stop-color:rgb(255,131,193);stop-opacity:1"/></linearGradient>
        <linearGradient id="_Linear27" x1="0" y1="0" x2="1" y2="0" gradientUnits="userSpaceOnUse" gradientTransform="matrix(-0.00148067,1.34969,-1.34969,-0.00148067,-3.92109,-2.99957)"><stop offset="0" style="stop-color:white;stop-opacity:1"/><stop offset="1" style="stop-color:rgb(255,131,193);stop-opacity:1"/></linearGradient>
        <linearGradient id="_Linear28" x1="0" y1="0" x2="1" y2="0" gradientUnits="userSpaceOnUse" gradientTransform="matrix(-0.00148067,1.34969,-1.34969,-0.00148067,-4.45209,-2.99957)"><stop offset="0" style="stop-color:white;stop-opacity:1"/><stop offset="1" style="stop-color:rgb(255,131,193);stop-opacity:1"/></linearGradient>
        <linearGradient id="_Linear29" x1="0" y1="0" x2="1" y2="0" gradientUnits="userSpaceOnUse" gradientTransform="matrix(-0.00148067,1.34969,-1.34969,-0.00148067,-4.96809,-2.99957)"><stop offset="0" style="stop-color:white;stop-opacity:1"/><stop offset="1" style="stop-color:rgb(255,131,193);stop-opacity:1"/></linearGradient>
        <linearGradient id="_Linear30" x1="0" y1="0" x2="1" y2="0" gradientUnits="userSpaceOnUse" gradientTransform="matrix(-0.00148067,1.34969,-1.34969,-0.00148067,-5.45009,-2.99957)"><stop offset="0" style="stop-color:white;stop-opacity:1"/><stop offset="1" style="stop-color:rgb(255,131,193);stop-opacity:1"/></linearGradient>
        <linearGradient id="_Linear31" x1="0" y1="0" x2="1" y2="0" gradientUnits="userSpaceOnUse" gradientTransform="matrix(-0.00148067,1.34969,-1.34969,-0.00148067,-6.28509,-2.99957)"><stop offset="0" style="stop-color:white;stop-opacity:1"/><stop offset="1" style="stop-color:rgb(255,131,193);stop-opacity:1"/></linearGradient>
        <linearGradient id="_Linear32" x1="0" y1="0" x2="1" y2="0" gradientUnits="userSpaceOnUse" gradientTransform="matrix(-0.00148067,1.34969,-1.34969,-0.00148067,-6.63109,-2.99957)"><stop offset="0" style="stop-color:white;stop-opacity:1"/><stop offset="1" style="stop-color:rgb(255,131,193);stop-opacity:1"/></linearGradient>
        <linearGradient id="_Linear33" x1="0" y1="0" x2="1" y2="0" gradientUnits="userSpaceOnUse" gradientTransform="matrix(-0.00148067,1.34969,-1.34969,-0.00148067,-7.02509,-2.99957)"><stop offset="0" style="stop-color:white;stop-opacity:1"/><stop offset="1" style="stop-color:rgb(255,131,193);stop-opacity:1"/></linearGradient>
        <linearGradient id="_Linear34" x1="0" y1="0" x2="1" y2="0" gradientUnits="userSpaceOnUse" gradientTransform="matrix(-0.00148067,1.34969,-1.34969,-0.00148067,-7.52909,-2.99957)"><stop offset="0" style="stop-color:white;stop-opacity:1"/><stop offset="1" style="stop-color:rgb(255,131,193);stop-opacity:1"/></linearGradient>
        <linearGradient id="_Linear35" x1="0" y1="0" x2="1" y2="0" gradientUnits="userSpaceOnUse" gradientTransform="matrix(-0.00148067,1.34969,-1.34969,-0.00148067,-8.50077,-2.99957)"><stop offset="0" style="stop-color:white;stop-opacity:1"/><stop offset="1" style="stop-color:rgb(255,131,193);stop-opacity:1"/></linearGradient>
        <linearGradient id="_Linear36" x1="0" y1="0" x2="1" y2="0" gradientUnits="userSpaceOnUse" gradientTransform="matrix(-0.00148067,1.34969,-1.34969,-0.00148067,-9.00477,-2.99957)"><stop offset="0" style="stop-color:white;stop-opacity:1"/><stop offset="1" style="stop-color:rgb(255,131,193);stop-opacity:1"/></linearGradient>
        <linearGradient id="_Linear37" x1="0" y1="0" x2="1" y2="0" gradientUnits="userSpaceOnUse" gradientTransform="matrix(-0.00148067,1.34969,-1.34969,-0.00148067,-9.39877,-2.99957)"><stop offset="0" style="stop-color:white;stop-opacity:1"/><stop offset="1" style="stop-color:rgb(255,131,193);stop-opacity:1"/></linearGradient>
    </defs>
</svg>
