<?xml version="1.0" encoding="UTF-8" standalone="no"?>
<!DOCTYPE svg PUBLIC "-//W3C//DTD SVG 1.1//EN" "http://www.w3.org/Graphics/SVG/1.1/DTD/svg11.dtd">
<svg width="100%" height="100%" viewBox="0 0 900 300" version="1.1" xmlns="http://www.w3.org/2000/svg" xmlns:xlink="http://www.w3.org/1999/xlink" xml:space="preserve" xmlns:serif="http://www.serif.com/" style="fill-rule:evenodd;clip-rule:evenodd;stroke-linejoin:round;stroke-miterlimit:2;">
    <g transform="matrix(1.09462,0,0,1.09462,-12.7281,-8.36666)">
        <g transform="matrix(125,0,0,125,9.33113,132.335)">
            <path d="M0.289,0.031C0.222,0.031 0.166,0.011 0.122,-0.03C0.075,-0.072 0.051,-0.128 0.051,-0.197C0.051,-0.263 0.073,-0.332 0.117,-0.402C0.166,-0.48 0.221,-0.519 0.282,-0.519C0.314,-0.519 0.35,-0.512 0.389,-0.497C0.439,-0.477 0.464,-0.454 0.464,-0.426C0.464,-0.414 0.46,-0.403 0.452,-0.393C0.444,-0.384 0.433,-0.379 0.421,-0.379C0.412,-0.379 0.404,-0.382 0.397,-0.387C0.39,-0.393 0.383,-0.399 0.376,-0.404C0.357,-0.42 0.326,-0.427 0.282,-0.427C0.249,-0.427 0.216,-0.398 0.184,-0.338C0.154,-0.284 0.139,-0.237 0.139,-0.197C0.139,-0.154 0.154,-0.12 0.183,-0.096C0.21,-0.073 0.246,-0.061 0.289,-0.061C0.308,-0.061 0.329,-0.066 0.351,-0.077L0.408,-0.107C0.417,-0.112 0.424,-0.115 0.429,-0.115C0.441,-0.115 0.451,-0.11 0.46,-0.1C0.469,-0.091 0.473,-0.08 0.473,-0.067C0.473,-0.044 0.448,-0.021 0.398,0.001C0.354,0.021 0.318,0.031 0.289,0.031Z" style="fill:url(#_Linear1);fill-rule:nonzero;"/>
        </g>
        <g transform="matrix(125,0,0,125,73.5401,132.335)">
            <path d="M0.466,-0.285C0.466,-0.262 0.466,-0.227 0.467,-0.18C0.467,-0.133 0.467,-0.098 0.467,-0.074C0.467,-0.067 0.468,-0.056 0.469,-0.042C0.47,-0.027 0.471,-0.016 0.471,-0.009C0.471,0.005 0.466,0.017 0.457,0.026C0.447,0.035 0.436,0.039 0.422,0.039C0.397,0.039 0.381,0.024 0.374,-0.007C0.333,0.014 0.286,0.024 0.233,0.024C0.191,0.024 0.155,0.015 0.127,-0.004C0.097,-0.025 0.078,-0.055 0.072,-0.095C0.06,-0.181 0.053,-0.258 0.053,-0.326C0.053,-0.37 0.058,-0.421 0.068,-0.478C0.072,-0.506 0.088,-0.521 0.114,-0.521C0.128,-0.521 0.14,-0.516 0.149,-0.507C0.159,-0.498 0.164,-0.487 0.164,-0.473C0.164,-0.458 0.161,-0.434 0.156,-0.401C0.152,-0.368 0.149,-0.343 0.149,-0.326C0.149,-0.271 0.151,-0.225 0.155,-0.186C0.158,-0.147 0.164,-0.116 0.171,-0.093C0.182,-0.087 0.192,-0.082 0.203,-0.079C0.213,-0.076 0.223,-0.075 0.233,-0.075C0.277,-0.075 0.323,-0.082 0.372,-0.096L0.371,-0.195L0.37,-0.29C0.37,-0.36 0.373,-0.421 0.379,-0.473C0.383,-0.503 0.399,-0.518 0.427,-0.518C0.441,-0.518 0.452,-0.513 0.462,-0.504C0.471,-0.495 0.476,-0.483 0.475,-0.47L0.466,-0.285Z" style="fill:url(#_Linear2);fill-rule:nonzero;"/>
        </g>
        <g transform="matrix(125,0,0,125,138.543,132.335)">
            <path d="M0.395,-0.416C0.388,-0.416 0.38,-0.416 0.37,-0.417C0.361,-0.418 0.353,-0.418 0.346,-0.418C0.339,-0.418 0.317,-0.416 0.28,-0.411L0.289,-0.122L0.29,-0.076C0.291,-0.004 0.274,0.031 0.239,0.031C0.226,0.031 0.214,0.027 0.205,0.019C0.195,0.01 0.19,-0 0.19,-0.013C0.19,-0.026 0.191,-0.044 0.192,-0.069C0.193,-0.094 0.193,-0.112 0.193,-0.125L0.184,-0.41C0.16,-0.411 0.124,-0.413 0.075,-0.418C0.046,-0.422 0.032,-0.438 0.032,-0.466C0.032,-0.481 0.036,-0.493 0.045,-0.502C0.054,-0.511 0.065,-0.516 0.079,-0.516L0.181,-0.508C0.181,-0.524 0.18,-0.547 0.179,-0.574C0.177,-0.602 0.177,-0.622 0.177,-0.635C0.177,-0.648 0.181,-0.66 0.191,-0.669C0.2,-0.678 0.212,-0.682 0.226,-0.682C0.255,-0.682 0.272,-0.658 0.277,-0.61C0.278,-0.598 0.278,-0.584 0.278,-0.567L0.277,-0.539L0.277,-0.508C0.317,-0.514 0.34,-0.516 0.346,-0.516C0.38,-0.516 0.402,-0.514 0.413,-0.511C0.432,-0.505 0.442,-0.489 0.442,-0.465C0.442,-0.451 0.438,-0.439 0.429,-0.43C0.42,-0.421 0.409,-0.416 0.395,-0.416Z" style="fill:url(#_Linear3);fill-rule:nonzero;"/>
        </g>
        <g transform="matrix(125,0,0,125,197.441,132.335)">
            <path d="M0.296,0.022C0.222,0.022 0.163,0.004 0.117,-0.033C0.067,-0.073 0.042,-0.13 0.042,-0.204C0.042,-0.288 0.063,-0.359 0.104,-0.417C0.149,-0.479 0.208,-0.51 0.283,-0.51C0.337,-0.51 0.381,-0.501 0.415,-0.483C0.457,-0.46 0.478,-0.426 0.478,-0.379C0.478,-0.347 0.46,-0.317 0.423,-0.291C0.407,-0.279 0.372,-0.261 0.319,-0.236L0.133,-0.147C0.151,-0.12 0.174,-0.1 0.201,-0.086C0.228,-0.073 0.26,-0.066 0.296,-0.066C0.318,-0.066 0.345,-0.07 0.375,-0.079C0.413,-0.089 0.438,-0.103 0.449,-0.121C0.46,-0.138 0.472,-0.147 0.485,-0.147C0.496,-0.147 0.506,-0.143 0.515,-0.134C0.524,-0.125 0.529,-0.115 0.529,-0.104C0.529,-0.068 0.5,-0.037 0.441,-0.011C0.392,0.011 0.343,0.022 0.296,0.022ZM0.283,-0.422C0.243,-0.422 0.21,-0.407 0.184,-0.376C0.157,-0.345 0.138,-0.299 0.125,-0.237L0.274,-0.309C0.333,-0.337 0.375,-0.362 0.4,-0.383C0.372,-0.409 0.333,-0.422 0.283,-0.422Z" style="fill:url(#_Linear4);fill-rule:nonzero;"/>
        </g>
        <g transform="matrix(125,0,0,125,303.276,132.335)">
            <path d="M0.47,-0.21L0.458,-0.046C0.457,0.019 0.45,0.072 0.438,0.113C0.424,0.166 0.4,0.205 0.368,0.23C0.329,0.26 0.273,0.275 0.199,0.275C0.155,0.275 0.119,0.272 0.09,0.267C0.049,0.258 0.028,0.242 0.028,0.216C0.028,0.187 0.042,0.172 0.071,0.172C0.083,0.172 0.102,0.175 0.129,0.181C0.157,0.187 0.187,0.189 0.22,0.188C0.283,0.188 0.326,0.157 0.35,0.098C0.365,0.058 0.374,-0.003 0.375,-0.085C0.357,-0.053 0.336,-0.028 0.312,-0.012C0.288,0.004 0.26,0.012 0.229,0.012C0.17,0.012 0.122,-0.008 0.085,-0.048C0.048,-0.088 0.029,-0.14 0.029,-0.205C0.029,-0.292 0.055,-0.363 0.105,-0.417C0.157,-0.472 0.228,-0.5 0.318,-0.5C0.348,-0.5 0.374,-0.496 0.394,-0.488C0.415,-0.48 0.43,-0.469 0.441,-0.453C0.476,-0.452 0.493,-0.433 0.493,-0.395C0.493,-0.372 0.49,-0.341 0.483,-0.302C0.475,-0.257 0.471,-0.227 0.47,-0.21ZM0.313,-0.422C0.251,-0.422 0.203,-0.401 0.169,-0.358C0.139,-0.319 0.124,-0.271 0.124,-0.211C0.124,-0.164 0.133,-0.129 0.151,-0.105C0.169,-0.081 0.196,-0.069 0.231,-0.069C0.264,-0.069 0.296,-0.088 0.327,-0.125C0.355,-0.159 0.371,-0.193 0.375,-0.227C0.382,-0.262 0.389,-0.317 0.397,-0.392C0.384,-0.402 0.37,-0.41 0.356,-0.415C0.342,-0.419 0.328,-0.422 0.313,-0.422Z" style="fill:url(#_Linear5);fill-rule:nonzero;"/>
        </g>
        <g transform="matrix(125,0,0,125,369.622,132.335)">
            <path d="M0.161,-0.618C0.146,-0.618 0.132,-0.624 0.121,-0.635C0.109,-0.646 0.104,-0.659 0.104,-0.675C0.104,-0.69 0.109,-0.704 0.121,-0.715C0.132,-0.726 0.146,-0.731 0.161,-0.731C0.177,-0.731 0.19,-0.726 0.201,-0.715C0.213,-0.704 0.218,-0.69 0.218,-0.675C0.218,-0.659 0.213,-0.646 0.201,-0.635C0.19,-0.624 0.177,-0.618 0.161,-0.618ZM0.183,-0.222C0.183,-0.202 0.184,-0.173 0.185,-0.134C0.186,-0.095 0.187,-0.066 0.187,-0.046C0.187,-0.032 0.182,-0.02 0.173,-0.011C0.165,-0.002 0.153,0.002 0.139,0.002C0.125,0.002 0.113,-0.002 0.104,-0.011C0.095,-0.02 0.091,-0.032 0.091,-0.046C0.091,-0.066 0.09,-0.095 0.089,-0.134C0.088,-0.173 0.087,-0.202 0.087,-0.222C0.087,-0.252 0.089,-0.29 0.092,-0.336C0.096,-0.382 0.097,-0.42 0.097,-0.451C0.097,-0.465 0.102,-0.477 0.111,-0.486C0.12,-0.495 0.131,-0.5 0.145,-0.5C0.159,-0.5 0.17,-0.495 0.179,-0.486C0.188,-0.477 0.193,-0.465 0.193,-0.451C0.193,-0.42 0.191,-0.382 0.188,-0.336C0.185,-0.29 0.183,-0.252 0.183,-0.222Z" style="fill:url(#_Linear6);fill-rule:nonzero;"/>
        </g>
        <g transform="matrix(125,0,0,125,404.656,132.335)">
            <path d="M0.448,-0.361C0.445,-0.32 0.429,-0.3 0.399,-0.3C0.371,-0.3 0.357,-0.316 0.357,-0.348C0.357,-0.354 0.356,-0.366 0.355,-0.382L0.354,-0.423C0.303,-0.417 0.261,-0.403 0.23,-0.38C0.201,-0.359 0.177,-0.327 0.158,-0.284L0.159,-0.017C0.159,0.016 0.143,0.033 0.111,0.033C0.082,0.033 0.068,0.016 0.068,-0.017L0.068,-0.359C0.068,-0.37 0.068,-0.386 0.069,-0.408C0.07,-0.429 0.07,-0.445 0.07,-0.456C0.07,-0.489 0.085,-0.505 0.113,-0.505C0.145,-0.505 0.161,-0.478 0.162,-0.424C0.224,-0.485 0.293,-0.515 0.37,-0.515C0.396,-0.515 0.416,-0.505 0.429,-0.485C0.442,-0.465 0.448,-0.435 0.448,-0.395C0.448,-0.378 0.448,-0.367 0.448,-0.361Z" style="fill:url(#_Linear7);fill-rule:nonzero;"/>
        </g>
        <g transform="matrix(125,0,0,125,464.714,132.335)">
            <path d="M0.192,-0.384L0.185,-0.141C0.185,-0.115 0.183,-0.078 0.181,-0.028C0.177,0.005 0.161,0.021 0.133,0.021C0.101,0.021 0.085,0.004 0.085,-0.029C0.085,-0.068 0.087,-0.127 0.09,-0.206C0.094,-0.285 0.096,-0.344 0.096,-0.384C0.096,-0.435 0.097,-0.494 0.098,-0.56C0.1,-0.627 0.101,-0.685 0.101,-0.737C0.101,-0.769 0.117,-0.786 0.148,-0.786C0.181,-0.786 0.197,-0.769 0.197,-0.737C0.197,-0.685 0.196,-0.627 0.194,-0.56C0.193,-0.494 0.192,-0.435 0.192,-0.384Z" style="fill:url(#_Linear8);fill-rule:nonzero;"/>
        </g>
        <g transform="matrix(125,0,0,125,498.955,132.335)">
            <path d="M0.397,-0.376C0.38,-0.376 0.367,-0.382 0.36,-0.394C0.355,-0.403 0.351,-0.42 0.347,-0.447C0.323,-0.441 0.285,-0.429 0.234,-0.413C0.182,-0.392 0.156,-0.366 0.155,-0.335C0.165,-0.332 0.175,-0.329 0.184,-0.328C0.259,-0.314 0.315,-0.296 0.351,-0.272C0.404,-0.238 0.431,-0.189 0.431,-0.124C0.431,-0.071 0.408,-0.031 0.362,-0.004C0.324,0.018 0.276,0.029 0.217,0.029C0.175,0.029 0.134,0.022 0.095,0.008C0.045,-0.01 0.02,-0.036 0.02,-0.068C0.02,-0.081 0.025,-0.093 0.035,-0.103C0.046,-0.112 0.057,-0.117 0.07,-0.117C0.08,-0.117 0.093,-0.109 0.109,-0.094C0.117,-0.086 0.135,-0.08 0.162,-0.075C0.184,-0.071 0.202,-0.069 0.217,-0.069C0.245,-0.069 0.269,-0.073 0.29,-0.079C0.32,-0.089 0.335,-0.104 0.335,-0.124C0.335,-0.168 0.304,-0.198 0.242,-0.214L0.191,-0.225C0.148,-0.235 0.117,-0.246 0.099,-0.258C0.073,-0.277 0.06,-0.304 0.06,-0.341C0.06,-0.409 0.092,-0.457 0.156,-0.486C0.175,-0.495 0.207,-0.506 0.25,-0.518C0.292,-0.53 0.323,-0.54 0.342,-0.549C0.355,-0.555 0.37,-0.558 0.385,-0.558C0.399,-0.558 0.411,-0.553 0.42,-0.544C0.429,-0.535 0.433,-0.523 0.433,-0.508C0.433,-0.499 0.435,-0.485 0.439,-0.467C0.443,-0.449 0.445,-0.435 0.445,-0.425C0.445,-0.411 0.441,-0.399 0.432,-0.39C0.423,-0.381 0.411,-0.376 0.397,-0.376Z" style="fill:url(#_Linear9);fill-rule:nonzero;"/>
        </g>
        <g transform="matrix(125,0,0,125,597.161,132.335)">
            <path d="M0.289,0.031C0.222,0.031 0.166,0.011 0.122,-0.03C0.075,-0.072 0.051,-0.128 0.051,-0.197C0.051,-0.263 0.073,-0.332 0.117,-0.402C0.166,-0.48 0.221,-0.519 0.282,-0.519C0.314,-0.519 0.35,-0.512 0.389,-0.497C0.439,-0.477 0.464,-0.454 0.464,-0.426C0.464,-0.414 0.46,-0.403 0.452,-0.393C0.444,-0.384 0.433,-0.379 0.421,-0.379C0.412,-0.379 0.404,-0.382 0.397,-0.387C0.39,-0.393 0.383,-0.399 0.376,-0.404C0.357,-0.42 0.326,-0.427 0.282,-0.427C0.249,-0.427 0.216,-0.398 0.184,-0.338C0.154,-0.284 0.139,-0.237 0.139,-0.197C0.139,-0.154 0.154,-0.12 0.183,-0.096C0.21,-0.073 0.246,-0.061 0.289,-0.061C0.308,-0.061 0.329,-0.066 0.351,-0.077L0.408,-0.107C0.417,-0.112 0.424,-0.115 0.429,-0.115C0.441,-0.115 0.451,-0.11 0.46,-0.1C0.469,-0.091 0.473,-0.08 0.473,-0.067C0.473,-0.044 0.448,-0.021 0.398,0.001C0.354,0.021 0.318,0.031 0.289,0.031Z" style="fill:url(#_Linear10);fill-rule:nonzero;"/>
        </g>
        <g transform="matrix(125,0,0,125,661.37,132.335)">
            <path d="M0.192,-0.384L0.185,-0.141C0.185,-0.115 0.183,-0.078 0.181,-0.028C0.177,0.005 0.161,0.021 0.133,0.021C0.101,0.021 0.085,0.004 0.085,-0.029C0.085,-0.068 0.087,-0.127 0.09,-0.206C0.094,-0.285 0.096,-0.344 0.096,-0.384C0.096,-0.435 0.097,-0.494 0.098,-0.56C0.1,-0.627 0.101,-0.685 0.101,-0.737C0.101,-0.769 0.117,-0.786 0.148,-0.786C0.181,-0.786 0.197,-0.769 0.197,-0.737C0.197,-0.685 0.196,-0.627 0.194,-0.56C0.193,-0.494 0.192,-0.435 0.192,-0.384Z" style="fill:url(#_Linear11);fill-rule:nonzero;"/>
        </g>
        <g transform="matrix(125,0,0,125,695.61,132.335)">
            <path d="M0.466,-0.285C0.466,-0.262 0.466,-0.227 0.467,-0.18C0.467,-0.133 0.467,-0.098 0.467,-0.074C0.467,-0.067 0.468,-0.056 0.469,-0.042C0.47,-0.027 0.471,-0.016 0.471,-0.009C0.471,0.005 0.466,0.017 0.457,0.026C0.447,0.035 0.436,0.039 0.422,0.039C0.397,0.039 0.381,0.024 0.374,-0.007C0.333,0.014 0.286,0.024 0.233,0.024C0.191,0.024 0.155,0.015 0.127,-0.004C0.097,-0.025 0.078,-0.055 0.072,-0.095C0.06,-0.181 0.053,-0.258 0.053,-0.326C0.053,-0.37 0.058,-0.421 0.068,-0.478C0.072,-0.506 0.088,-0.521 0.114,-0.521C0.128,-0.521 0.14,-0.516 0.149,-0.507C0.159,-0.498 0.164,-0.487 0.164,-0.473C0.164,-0.458 0.161,-0.434 0.156,-0.401C0.152,-0.368 0.149,-0.343 0.149,-0.326C0.149,-0.271 0.151,-0.225 0.155,-0.186C0.158,-0.147 0.164,-0.116 0.171,-0.093C0.182,-0.087 0.192,-0.082 0.203,-0.079C0.213,-0.076 0.223,-0.075 0.233,-0.075C0.277,-0.075 0.323,-0.082 0.372,-0.096L0.371,-0.195L0.37,-0.29C0.37,-0.36 0.373,-0.421 0.379,-0.473C0.383,-0.503 0.399,-0.518 0.427,-0.518C0.441,-0.518 0.452,-0.513 0.462,-0.504C0.471,-0.495 0.476,-0.483 0.475,-0.47L0.466,-0.285Z" style="fill:url(#_Linear12);fill-rule:nonzero;"/>
        </g>
        <g transform="matrix(125,0,0,125,760.613,132.335)">
            <path d="M0.296,0.021C0.246,0.021 0.201,0.011 0.16,-0.009C0.15,0.007 0.137,0.015 0.122,0.015C0.11,0.015 0.099,0.01 0.091,0.002C0.082,-0.007 0.078,-0.018 0.078,-0.031C0.078,-0.039 0.078,-0.052 0.079,-0.068C0.08,-0.085 0.08,-0.097 0.08,-0.106C0.08,-0.14 0.079,-0.192 0.077,-0.261C0.076,-0.33 0.075,-0.382 0.075,-0.416C0.075,-0.44 0.075,-0.485 0.075,-0.551C0.076,-0.617 0.076,-0.662 0.076,-0.687C0.076,-0.706 0.08,-0.724 0.088,-0.739C0.099,-0.759 0.113,-0.769 0.132,-0.769C0.157,-0.769 0.169,-0.755 0.169,-0.727C0.169,-0.722 0.168,-0.715 0.167,-0.707C0.165,-0.698 0.164,-0.691 0.164,-0.687L0.163,-0.58L0.162,-0.455C0.19,-0.474 0.217,-0.489 0.242,-0.498C0.268,-0.508 0.292,-0.513 0.314,-0.513C0.384,-0.513 0.441,-0.486 0.485,-0.432C0.526,-0.382 0.546,-0.32 0.546,-0.246C0.546,-0.172 0.522,-0.109 0.475,-0.057C0.427,-0.005 0.367,0.021 0.296,0.021ZM0.314,-0.42C0.288,-0.42 0.26,-0.413 0.232,-0.398C0.219,-0.39 0.195,-0.374 0.162,-0.35L0.161,-0.265L0.162,-0.109C0.178,-0.102 0.2,-0.093 0.228,-0.082C0.248,-0.075 0.271,-0.072 0.296,-0.072C0.343,-0.072 0.382,-0.089 0.412,-0.122C0.442,-0.155 0.458,-0.197 0.458,-0.246C0.458,-0.295 0.445,-0.335 0.421,-0.368C0.395,-0.403 0.359,-0.42 0.314,-0.42Z" style="fill:url(#_Linear13);fill-rule:nonzero;"/>
        </g>
    </g>
    <g transform="matrix(1,0,0,1,-57.8779,4.84567)">
        <g transform="matrix(58.3333,0,0,58.3333,131.945,252.054)">
            <path d="M0.449,0.032C0.443,0.032 0.432,0.025 0.416,0.011C0.401,-0.003 0.39,-0.014 0.383,-0.025C0.352,-0.008 0.324,0.005 0.3,0.013C0.277,0.022 0.257,0.026 0.241,0.026C0.165,0.026 0.109,0.005 0.074,-0.038C0.041,-0.078 0.025,-0.14 0.025,-0.224C0.025,-0.302 0.052,-0.37 0.106,-0.426C0.16,-0.482 0.225,-0.51 0.3,-0.51C0.329,-0.51 0.36,-0.502 0.396,-0.488C0.44,-0.47 0.462,-0.448 0.462,-0.422C0.462,-0.413 0.459,-0.405 0.452,-0.398C0.449,-0.386 0.446,-0.366 0.445,-0.337C0.443,-0.309 0.442,-0.273 0.441,-0.229C0.441,-0.188 0.444,-0.156 0.45,-0.133C0.453,-0.118 0.463,-0.09 0.48,-0.047C0.483,-0.041 0.486,-0.032 0.492,-0.021L0.495,-0.013C0.495,0 0.49,0.011 0.481,0.02C0.472,0.028 0.461,0.032 0.449,0.032ZM0.348,-0.307C0.348,-0.321 0.349,-0.336 0.35,-0.353C0.352,-0.369 0.355,-0.387 0.358,-0.405C0.346,-0.411 0.336,-0.416 0.327,-0.419C0.319,-0.422 0.312,-0.423 0.307,-0.423C0.256,-0.423 0.213,-0.403 0.176,-0.362C0.139,-0.32 0.121,-0.273 0.121,-0.219C0.121,-0.166 0.131,-0.126 0.149,-0.099C0.168,-0.072 0.197,-0.059 0.234,-0.059C0.266,-0.059 0.292,-0.065 0.314,-0.076C0.326,-0.082 0.342,-0.095 0.363,-0.113C0.353,-0.2 0.348,-0.264 0.348,-0.307Z" style="fill:url(#_Linear14);fill-rule:nonzero;"/>
        </g>
        <g transform="matrix(58.3333,0,0,58.3333,179.227,252.054)">
            <path d="M0.289,0.031C0.222,0.031 0.166,0.011 0.122,-0.03C0.075,-0.072 0.051,-0.128 0.051,-0.197C0.051,-0.263 0.073,-0.332 0.117,-0.402C0.166,-0.48 0.221,-0.519 0.282,-0.519C0.314,-0.519 0.35,-0.512 0.389,-0.497C0.439,-0.477 0.464,-0.454 0.464,-0.426C0.464,-0.414 0.46,-0.403 0.452,-0.393C0.444,-0.384 0.433,-0.379 0.421,-0.379C0.412,-0.379 0.404,-0.382 0.397,-0.387C0.39,-0.393 0.383,-0.399 0.376,-0.404C0.357,-0.42 0.326,-0.427 0.282,-0.427C0.249,-0.427 0.216,-0.398 0.184,-0.338C0.154,-0.284 0.139,-0.237 0.139,-0.197C0.139,-0.154 0.154,-0.12 0.183,-0.096C0.21,-0.073 0.246,-0.061 0.289,-0.061C0.308,-0.061 0.329,-0.066 0.351,-0.077L0.408,-0.107C0.417,-0.112 0.424,-0.115 0.429,-0.115C0.441,-0.115 0.451,-0.11 0.46,-0.1C0.469,-0.091 0.473,-0.08 0.473,-0.067C0.473,-0.044 0.448,-0.021 0.398,0.001C0.354,0.021 0.318,0.031 0.289,0.031Z" style="fill:url(#_Linear15);fill-rule:nonzero;"/>
        </g>
        <g transform="matrix(58.3333,0,0,58.3333,209.191,252.054)">
            <path d="M0.251,0.029C0.196,0.029 0.149,0.009 0.11,-0.032C0.066,-0.077 0.043,-0.137 0.041,-0.213C0.039,-0.286 0.057,-0.351 0.096,-0.407C0.142,-0.473 0.205,-0.506 0.287,-0.506C0.352,-0.506 0.401,-0.477 0.435,-0.417C0.461,-0.369 0.474,-0.311 0.473,-0.243C0.472,-0.171 0.453,-0.109 0.417,-0.058C0.375,-0 0.32,0.029 0.251,0.029ZM0.28,-0.407C0.232,-0.408 0.195,-0.385 0.168,-0.339C0.147,-0.302 0.137,-0.26 0.137,-0.213C0.137,-0.166 0.15,-0.129 0.175,-0.103C0.197,-0.081 0.222,-0.07 0.251,-0.07C0.285,-0.07 0.314,-0.082 0.338,-0.107C0.366,-0.134 0.381,-0.171 0.382,-0.218C0.387,-0.344 0.353,-0.407 0.28,-0.407Z" style="fill:url(#_Linear16);fill-rule:nonzero;"/>
        </g>
        <g transform="matrix(58.3333,0,0,58.3333,239.867,252.054)">
            <path d="M0.688,0.041C0.661,0.041 0.646,0.026 0.641,-0.002C0.635,-0.038 0.629,-0.088 0.624,-0.153L0.607,-0.305C0.604,-0.327 0.598,-0.349 0.59,-0.371C0.579,-0.4 0.567,-0.415 0.554,-0.415C0.542,-0.415 0.52,-0.404 0.487,-0.384C0.456,-0.365 0.435,-0.35 0.425,-0.338C0.425,-0.308 0.426,-0.277 0.428,-0.247L0.442,-0.116C0.449,-0.065 0.452,-0.022 0.452,0.011C0.452,0.026 0.447,0.037 0.438,0.047C0.429,0.056 0.418,0.061 0.404,0.061C0.39,0.061 0.378,0.056 0.369,0.047C0.36,0.037 0.356,0.026 0.356,0.011C0.356,-0.028 0.352,-0.086 0.344,-0.163C0.336,-0.24 0.332,-0.299 0.332,-0.338C0.332,-0.372 0.327,-0.399 0.317,-0.418C0.295,-0.408 0.271,-0.391 0.248,-0.368L0.19,-0.303C0.185,-0.295 0.177,-0.285 0.166,-0.272C0.166,-0.253 0.164,-0.224 0.16,-0.186C0.157,-0.148 0.155,-0.12 0.155,-0.102C0.155,-0.092 0.156,-0.078 0.159,-0.061C0.163,-0.043 0.164,-0.03 0.164,-0.022C0.164,-0.009 0.159,0.002 0.149,0.011C0.139,0.02 0.128,0.025 0.114,0.025C0.077,0.025 0.059,-0.017 0.059,-0.101C0.059,-0.12 0.061,-0.149 0.064,-0.188C0.068,-0.227 0.07,-0.256 0.07,-0.275C0.07,-0.293 0.068,-0.319 0.065,-0.353C0.062,-0.388 0.061,-0.414 0.061,-0.431C0.061,-0.505 0.077,-0.542 0.11,-0.542C0.123,-0.542 0.135,-0.536 0.145,-0.525C0.156,-0.514 0.161,-0.502 0.161,-0.489C0.161,-0.483 0.16,-0.473 0.159,-0.46C0.157,-0.447 0.156,-0.438 0.156,-0.431L0.157,-0.379C0.174,-0.414 0.199,-0.446 0.232,-0.474C0.265,-0.502 0.293,-0.516 0.316,-0.516C0.367,-0.516 0.402,-0.491 0.421,-0.44C0.439,-0.464 0.461,-0.482 0.485,-0.493C0.51,-0.505 0.538,-0.511 0.57,-0.511C0.625,-0.511 0.662,-0.482 0.682,-0.423C0.686,-0.412 0.692,-0.366 0.702,-0.286C0.711,-0.23 0.722,-0.137 0.737,-0.006C0.738,0.007 0.733,0.018 0.724,0.027C0.714,0.036 0.702,0.041 0.688,0.041Z" style="fill:url(#_Linear17);fill-rule:nonzero;"/>
        </g>
        <g transform="matrix(58.3333,0,0,58.3333,285.184,252.054)">
            <path d="M0.396,-0.687C0.317,-0.687 0.273,-0.632 0.264,-0.522L0.262,-0.492C0.318,-0.496 0.353,-0.498 0.37,-0.498C0.421,-0.498 0.447,-0.482 0.447,-0.449C0.447,-0.425 0.435,-0.411 0.409,-0.407C0.398,-0.405 0.385,-0.404 0.37,-0.405C0.356,-0.405 0.318,-0.403 0.258,-0.398L0.254,-0.287C0.254,-0.266 0.255,-0.236 0.256,-0.196C0.257,-0.155 0.258,-0.125 0.258,-0.105C0.258,-0.044 0.254,0.005 0.247,0.039C0.242,0.065 0.226,0.078 0.202,0.078C0.188,0.078 0.177,0.074 0.167,0.065C0.158,0.057 0.153,0.046 0.153,0.033C0.153,0.03 0.154,0.027 0.154,0.023C0.161,-0.019 0.165,-0.065 0.165,-0.115L0.163,-0.249L0.163,-0.39C0.122,-0.387 0.097,-0.385 0.086,-0.385C0.053,-0.385 0.037,-0.401 0.037,-0.433C0.037,-0.465 0.065,-0.482 0.122,-0.483L0.169,-0.485C0.17,-0.503 0.172,-0.528 0.176,-0.559C0.185,-0.631 0.203,-0.685 0.231,-0.719C0.265,-0.76 0.318,-0.781 0.39,-0.781C0.436,-0.781 0.459,-0.765 0.459,-0.733C0.459,-0.702 0.438,-0.687 0.396,-0.687Z" style="fill:url(#_Linear18);fill-rule:nonzero;"/>
        </g>
        <g transform="matrix(58.3333,0,0,58.3333,314.835,252.054)">
            <path d="M0.494,-0.436L0.325,-0.07C0.283,0.019 0.251,0.093 0.229,0.153L0.197,0.248C0.188,0.271 0.174,0.283 0.153,0.283C0.139,0.283 0.127,0.278 0.117,0.269C0.108,0.26 0.103,0.249 0.103,0.236C0.103,0.203 0.138,0.109 0.208,-0.047L0.033,-0.383L0.011,-0.419C0.002,-0.434 -0.002,-0.446 -0.002,-0.457C-0.002,-0.47 0.003,-0.482 0.013,-0.492C0.024,-0.502 0.035,-0.507 0.048,-0.507C0.063,-0.507 0.074,-0.501 0.083,-0.49C0.138,-0.413 0.197,-0.304 0.261,-0.162L0.333,-0.33C0.359,-0.388 0.384,-0.438 0.408,-0.48C0.419,-0.499 0.432,-0.508 0.449,-0.508C0.463,-0.508 0.474,-0.503 0.485,-0.494C0.495,-0.484 0.5,-0.473 0.5,-0.46C0.5,-0.453 0.498,-0.445 0.494,-0.436Z" style="fill:url(#_Linear19);fill-rule:nonzero;"/>
        </g>
        <g transform="matrix(58.3333,0,0,58.3333,362.629,252.054)">
            <path d="M0.396,-0.687C0.317,-0.687 0.273,-0.632 0.264,-0.522L0.262,-0.492C0.318,-0.496 0.353,-0.498 0.37,-0.498C0.421,-0.498 0.447,-0.482 0.447,-0.449C0.447,-0.425 0.435,-0.411 0.409,-0.407C0.398,-0.405 0.385,-0.404 0.37,-0.405C0.356,-0.405 0.318,-0.403 0.258,-0.398L0.254,-0.287C0.254,-0.266 0.255,-0.236 0.256,-0.196C0.257,-0.155 0.258,-0.125 0.258,-0.105C0.258,-0.044 0.254,0.005 0.247,0.039C0.242,0.065 0.226,0.078 0.202,0.078C0.188,0.078 0.177,0.074 0.167,0.065C0.158,0.057 0.153,0.046 0.153,0.033C0.153,0.03 0.154,0.027 0.154,0.023C0.161,-0.019 0.165,-0.065 0.165,-0.115L0.163,-0.249L0.163,-0.39C0.122,-0.387 0.097,-0.385 0.086,-0.385C0.053,-0.385 0.037,-0.401 0.037,-0.433C0.037,-0.465 0.065,-0.482 0.122,-0.483L0.169,-0.485C0.17,-0.503 0.172,-0.528 0.176,-0.559C0.185,-0.631 0.203,-0.685 0.231,-0.719C0.265,-0.76 0.318,-0.781 0.39,-0.781C0.436,-0.781 0.459,-0.765 0.459,-0.733C0.459,-0.702 0.438,-0.687 0.396,-0.687Z" style="fill:url(#_Linear20);fill-rule:nonzero;"/>
        </g>
        <g transform="matrix(58.3333,0,0,58.3333,392.28,252.054)">
            <path d="M0.448,-0.361C0.445,-0.32 0.429,-0.3 0.399,-0.3C0.371,-0.3 0.357,-0.316 0.357,-0.348C0.357,-0.354 0.356,-0.366 0.355,-0.382L0.354,-0.423C0.303,-0.417 0.261,-0.403 0.23,-0.38C0.201,-0.359 0.177,-0.327 0.158,-0.284L0.159,-0.017C0.159,0.016 0.143,0.033 0.111,0.033C0.082,0.033 0.068,0.016 0.068,-0.017L0.068,-0.359C0.068,-0.37 0.068,-0.386 0.069,-0.408C0.07,-0.429 0.07,-0.445 0.07,-0.456C0.07,-0.489 0.085,-0.505 0.113,-0.505C0.145,-0.505 0.161,-0.478 0.162,-0.424C0.224,-0.485 0.293,-0.515 0.37,-0.515C0.396,-0.515 0.416,-0.505 0.429,-0.485C0.442,-0.465 0.448,-0.435 0.448,-0.395C0.448,-0.378 0.448,-0.367 0.448,-0.361Z" style="fill:url(#_Linear21);fill-rule:nonzero;"/>
        </g>
        <g transform="matrix(58.3333,0,0,58.3333,420.308,252.054)">
            <path d="M0.161,-0.618C0.146,-0.618 0.132,-0.624 0.121,-0.635C0.109,-0.646 0.104,-0.659 0.104,-0.675C0.104,-0.69 0.109,-0.704 0.121,-0.715C0.132,-0.726 0.146,-0.731 0.161,-0.731C0.177,-0.731 0.19,-0.726 0.201,-0.715C0.213,-0.704 0.218,-0.69 0.218,-0.675C0.218,-0.659 0.213,-0.646 0.201,-0.635C0.19,-0.624 0.177,-0.618 0.161,-0.618ZM0.183,-0.222C0.183,-0.202 0.184,-0.173 0.185,-0.134C0.186,-0.095 0.187,-0.066 0.187,-0.046C0.187,-0.032 0.182,-0.02 0.173,-0.011C0.165,-0.002 0.153,0.002 0.139,0.002C0.125,0.002 0.113,-0.002 0.104,-0.011C0.095,-0.02 0.091,-0.032 0.091,-0.046C0.091,-0.066 0.09,-0.095 0.089,-0.134C0.088,-0.173 0.087,-0.202 0.087,-0.222C0.087,-0.252 0.089,-0.29 0.092,-0.336C0.096,-0.382 0.097,-0.42 0.097,-0.451C0.097,-0.465 0.102,-0.477 0.111,-0.486C0.12,-0.495 0.131,-0.5 0.145,-0.5C0.159,-0.5 0.17,-0.495 0.179,-0.486C0.188,-0.477 0.193,-0.465 0.193,-0.451C0.193,-0.42 0.191,-0.382 0.188,-0.336C0.185,-0.29 0.183,-0.252 0.183,-0.222Z" style="fill:url(#_Linear22);fill-rule:nonzero;"/>
        </g>
        <g transform="matrix(58.3333,0,0,58.3333,436.657,252.054)">
            <path d="M0.296,0.022C0.222,0.022 0.163,0.004 0.117,-0.033C0.067,-0.073 0.042,-0.13 0.042,-0.204C0.042,-0.288 0.063,-0.359 0.104,-0.417C0.149,-0.479 0.208,-0.51 0.283,-0.51C0.337,-0.51 0.381,-0.501 0.415,-0.483C0.457,-0.46 0.478,-0.426 0.478,-0.379C0.478,-0.347 0.46,-0.317 0.423,-0.291C0.407,-0.279 0.372,-0.261 0.319,-0.236L0.133,-0.147C0.151,-0.12 0.174,-0.1 0.201,-0.086C0.228,-0.073 0.26,-0.066 0.296,-0.066C0.318,-0.066 0.345,-0.07 0.375,-0.079C0.413,-0.089 0.438,-0.103 0.449,-0.121C0.46,-0.138 0.472,-0.147 0.485,-0.147C0.496,-0.147 0.506,-0.143 0.515,-0.134C0.524,-0.125 0.529,-0.115 0.529,-0.104C0.529,-0.068 0.5,-0.037 0.441,-0.011C0.392,0.011 0.343,0.022 0.296,0.022ZM0.283,-0.422C0.243,-0.422 0.21,-0.407 0.184,-0.376C0.157,-0.345 0.138,-0.299 0.125,-0.237L0.274,-0.309C0.333,-0.337 0.375,-0.362 0.4,-0.383C0.372,-0.409 0.333,-0.422 0.283,-0.422Z" style="fill:url(#_Linear23);fill-rule:nonzero;"/>
        </g>
        <g transform="matrix(58.3333,0,0,58.3333,468.615,252.054)">
            <path d="M0.442,0.035C0.414,0.035 0.399,0.019 0.395,-0.011L0.381,-0.118C0.377,-0.156 0.375,-0.192 0.375,-0.225C0.375,-0.234 0.375,-0.25 0.376,-0.271C0.377,-0.293 0.378,-0.309 0.378,-0.318C0.378,-0.388 0.365,-0.423 0.339,-0.423C0.302,-0.423 0.268,-0.402 0.234,-0.358C0.204,-0.319 0.181,-0.269 0.164,-0.209C0.163,-0.196 0.162,-0.18 0.16,-0.161C0.158,-0.145 0.157,-0.129 0.157,-0.114C0.157,-0.104 0.158,-0.089 0.16,-0.07C0.162,-0.05 0.163,-0.036 0.163,-0.026C0.163,-0.011 0.158,0.001 0.149,0.01C0.14,0.019 0.129,0.023 0.115,0.023C0.1,0.023 0.089,0.019 0.08,0.01C0.071,0.001 0.067,-0.011 0.067,-0.026C0.067,-0.036 0.066,-0.05 0.064,-0.07C0.062,-0.089 0.061,-0.104 0.061,-0.114C0.061,-0.147 0.063,-0.194 0.068,-0.253C0.072,-0.313 0.075,-0.359 0.075,-0.393C0.075,-0.403 0.074,-0.418 0.073,-0.439C0.072,-0.459 0.071,-0.475 0.071,-0.485C0.071,-0.499 0.076,-0.511 0.085,-0.52C0.094,-0.529 0.106,-0.533 0.12,-0.533C0.15,-0.533 0.166,-0.512 0.169,-0.47L0.17,-0.413C0.225,-0.486 0.281,-0.522 0.339,-0.522C0.391,-0.522 0.427,-0.499 0.448,-0.453C0.462,-0.423 0.469,-0.377 0.471,-0.317L0.471,-0.268L0.47,-0.223C0.47,-0.196 0.474,-0.161 0.481,-0.118C0.488,-0.075 0.491,-0.04 0.491,-0.014C0.491,0.001 0.487,0.012 0.477,0.021C0.468,0.03 0.456,0.035 0.442,0.035Z" style="fill:url(#_Linear24);fill-rule:nonzero;"/>
        </g>
        <g transform="matrix(58.3333,0,0,58.3333,499.149,252.054)">
            <path d="M0.518,-0.431C0.514,-0.383 0.512,-0.335 0.512,-0.288C0.512,-0.179 0.517,-0.097 0.527,-0.042C0.528,-0.037 0.528,-0.034 0.528,-0.031C0.528,-0.018 0.523,-0.007 0.514,0.001C0.505,0.01 0.494,0.014 0.482,0.014C0.462,0.014 0.447,-0 0.438,-0.03C0.415,-0.013 0.39,0 0.365,0.009C0.34,0.018 0.313,0.022 0.286,0.022C0.219,0.022 0.163,0 0.119,-0.045C0.073,-0.091 0.05,-0.15 0.05,-0.222C0.05,-0.309 0.073,-0.378 0.119,-0.431C0.165,-0.483 0.225,-0.509 0.299,-0.509C0.337,-0.509 0.366,-0.503 0.386,-0.492L0.432,-0.458C0.437,-0.595 0.442,-0.687 0.448,-0.735C0.452,-0.764 0.467,-0.778 0.493,-0.778C0.522,-0.778 0.537,-0.763 0.537,-0.731C0.537,-0.686 0.531,-0.586 0.518,-0.431ZM0.301,-0.418C0.246,-0.418 0.205,-0.402 0.178,-0.37C0.15,-0.337 0.137,-0.289 0.137,-0.224C0.137,-0.182 0.152,-0.146 0.181,-0.115C0.211,-0.085 0.246,-0.07 0.286,-0.07C0.313,-0.07 0.337,-0.075 0.355,-0.085C0.367,-0.091 0.385,-0.104 0.41,-0.125C0.415,-0.13 0.419,-0.135 0.424,-0.141L0.422,-0.225L0.423,-0.282L0.424,-0.339C0.411,-0.366 0.395,-0.385 0.375,-0.399C0.354,-0.412 0.329,-0.418 0.301,-0.418Z" style="fill:url(#_Linear25);fill-rule:nonzero;"/>
        </g>
        <g transform="matrix(58.3333,0,0,58.3333,550.846,252.054)">
            <path d="M0.397,-0.376C0.38,-0.376 0.367,-0.382 0.36,-0.394C0.355,-0.403 0.351,-0.42 0.347,-0.447C0.323,-0.441 0.285,-0.429 0.234,-0.413C0.182,-0.392 0.156,-0.366 0.155,-0.335C0.165,-0.332 0.175,-0.329 0.184,-0.328C0.259,-0.314 0.315,-0.296 0.351,-0.272C0.404,-0.238 0.431,-0.189 0.431,-0.124C0.431,-0.071 0.408,-0.031 0.362,-0.004C0.324,0.018 0.276,0.029 0.217,0.029C0.175,0.029 0.134,0.022 0.095,0.008C0.045,-0.01 0.02,-0.036 0.02,-0.068C0.02,-0.081 0.025,-0.093 0.035,-0.103C0.046,-0.112 0.057,-0.117 0.07,-0.117C0.08,-0.117 0.093,-0.109 0.109,-0.094C0.117,-0.086 0.135,-0.08 0.162,-0.075C0.184,-0.071 0.202,-0.069 0.217,-0.069C0.245,-0.069 0.269,-0.073 0.29,-0.079C0.32,-0.089 0.335,-0.104 0.335,-0.124C0.335,-0.168 0.304,-0.198 0.242,-0.214L0.191,-0.225C0.148,-0.235 0.117,-0.246 0.099,-0.258C0.073,-0.277 0.06,-0.304 0.06,-0.341C0.06,-0.409 0.092,-0.457 0.156,-0.486C0.175,-0.495 0.207,-0.506 0.25,-0.518C0.292,-0.53 0.323,-0.54 0.342,-0.549C0.355,-0.555 0.37,-0.558 0.385,-0.558C0.399,-0.558 0.411,-0.553 0.42,-0.544C0.429,-0.535 0.433,-0.523 0.433,-0.508C0.433,-0.499 0.435,-0.485 0.439,-0.467C0.443,-0.449 0.445,-0.435 0.445,-0.425C0.445,-0.411 0.441,-0.399 0.432,-0.39C0.423,-0.381 0.411,-0.376 0.397,-0.376Z" style="fill:url(#_Linear26);fill-rule:nonzero;"/>
        </g>
        <g transform="matrix(58.3333,0,0,58.3333,579.243,252.054)">
            <path d="M0.275,0.017C0.243,0.017 0.207,0.012 0.168,0.001L0.167,0.235C0.167,0.249 0.163,0.261 0.154,0.27C0.145,0.279 0.133,0.284 0.119,0.284C0.105,0.284 0.094,0.279 0.085,0.27C0.076,0.261 0.071,0.249 0.071,0.235L0.073,0.04L0.073,-0.155C0.072,-0.227 0.069,-0.292 0.065,-0.35L0.058,-0.449C0.058,-0.472 0.062,-0.492 0.071,-0.508C0.081,-0.527 0.095,-0.537 0.113,-0.537C0.126,-0.537 0.137,-0.532 0.145,-0.523C0.154,-0.514 0.158,-0.503 0.158,-0.49C0.158,-0.487 0.158,-0.482 0.157,-0.474C0.155,-0.464 0.154,-0.455 0.153,-0.446C0.181,-0.465 0.208,-0.48 0.234,-0.49C0.26,-0.499 0.285,-0.504 0.309,-0.504C0.376,-0.504 0.425,-0.474 0.456,-0.415C0.48,-0.368 0.492,-0.306 0.492,-0.229C0.492,-0.159 0.473,-0.101 0.436,-0.055C0.396,-0.007 0.342,0.017 0.275,0.017ZM0.309,-0.406C0.279,-0.406 0.252,-0.4 0.228,-0.386C0.211,-0.377 0.189,-0.36 0.163,-0.334C0.167,-0.261 0.169,-0.183 0.169,-0.102C0.204,-0.088 0.24,-0.081 0.275,-0.081C0.316,-0.081 0.347,-0.096 0.369,-0.126C0.387,-0.153 0.396,-0.187 0.396,-0.229C0.396,-0.288 0.389,-0.333 0.375,-0.362C0.36,-0.392 0.338,-0.406 0.309,-0.406Z" style="fill:url(#_Linear27);fill-rule:nonzero;"/>
        </g>
        <g transform="matrix(58.3333,0,0,58.3333,610.432,252.054)">
            <path d="M0.449,0.032C0.443,0.032 0.432,0.025 0.416,0.011C0.401,-0.003 0.39,-0.014 0.383,-0.025C0.352,-0.008 0.324,0.005 0.3,0.013C0.277,0.022 0.257,0.026 0.241,0.026C0.165,0.026 0.109,0.005 0.074,-0.038C0.041,-0.078 0.025,-0.14 0.025,-0.224C0.025,-0.302 0.052,-0.37 0.106,-0.426C0.16,-0.482 0.225,-0.51 0.3,-0.51C0.329,-0.51 0.36,-0.502 0.396,-0.488C0.44,-0.47 0.462,-0.448 0.462,-0.422C0.462,-0.413 0.459,-0.405 0.452,-0.398C0.449,-0.386 0.446,-0.366 0.445,-0.337C0.443,-0.309 0.442,-0.273 0.441,-0.229C0.441,-0.188 0.444,-0.156 0.45,-0.133C0.453,-0.118 0.463,-0.09 0.48,-0.047C0.483,-0.041 0.486,-0.032 0.492,-0.021L0.495,-0.013C0.495,0 0.49,0.011 0.481,0.02C0.472,0.028 0.461,0.032 0.449,0.032ZM0.348,-0.307C0.348,-0.321 0.349,-0.336 0.35,-0.353C0.352,-0.369 0.355,-0.387 0.358,-0.405C0.346,-0.411 0.336,-0.416 0.327,-0.419C0.319,-0.422 0.312,-0.423 0.307,-0.423C0.256,-0.423 0.213,-0.403 0.176,-0.362C0.139,-0.32 0.121,-0.273 0.121,-0.219C0.121,-0.166 0.131,-0.126 0.149,-0.099C0.168,-0.072 0.197,-0.059 0.234,-0.059C0.266,-0.059 0.292,-0.065 0.314,-0.076C0.326,-0.082 0.342,-0.095 0.363,-0.113C0.353,-0.2 0.348,-0.264 0.348,-0.307Z" style="fill:url(#_Linear28);fill-rule:nonzero;"/>
        </g>
        <g transform="matrix(58.3333,0,0,58.3333,640.282,252.054)">
            <path d="M0.289,0.031C0.222,0.031 0.166,0.011 0.122,-0.03C0.075,-0.072 0.051,-0.128 0.051,-0.197C0.051,-0.263 0.073,-0.332 0.117,-0.402C0.166,-0.48 0.221,-0.519 0.282,-0.519C0.314,-0.519 0.35,-0.512 0.389,-0.497C0.439,-0.477 0.464,-0.454 0.464,-0.426C0.464,-0.414 0.46,-0.403 0.452,-0.393C0.444,-0.384 0.433,-0.379 0.421,-0.379C0.412,-0.379 0.404,-0.382 0.397,-0.387C0.39,-0.393 0.383,-0.399 0.376,-0.404C0.357,-0.42 0.326,-0.427 0.282,-0.427C0.249,-0.427 0.216,-0.398 0.184,-0.338C0.154,-0.284 0.139,-0.237 0.139,-0.197C0.139,-0.154 0.154,-0.12 0.183,-0.096C0.21,-0.073 0.246,-0.061 0.289,-0.061C0.308,-0.061 0.329,-0.066 0.351,-0.077L0.408,-0.107C0.417,-0.112 0.424,-0.115 0.429,-0.115C0.441,-0.115 0.451,-0.11 0.46,-0.1C0.469,-0.091 0.473,-0.08 0.473,-0.067C0.473,-0.044 0.448,-0.021 0.398,0.001C0.354,0.021 0.318,0.031 0.289,0.031Z" style="fill:url(#_Linear29);fill-rule:nonzero;"/>
        </g>
        <g transform="matrix(58.3333,0,0,58.3333,670.247,252.054)">
            <path d="M0.296,0.022C0.222,0.022 0.163,0.004 0.117,-0.033C0.067,-0.073 0.042,-0.13 0.042,-0.204C0.042,-0.288 0.063,-0.359 0.104,-0.417C0.149,-0.479 0.208,-0.51 0.283,-0.51C0.337,-0.51 0.381,-0.501 0.415,-0.483C0.457,-0.46 0.478,-0.426 0.478,-0.379C0.478,-0.347 0.46,-0.317 0.423,-0.291C0.407,-0.279 0.372,-0.261 0.319,-0.236L0.133,-0.147C0.151,-0.12 0.174,-0.1 0.201,-0.086C0.228,-0.073 0.26,-0.066 0.296,-0.066C0.318,-0.066 0.345,-0.07 0.375,-0.079C0.413,-0.089 0.438,-0.103 0.449,-0.121C0.46,-0.138 0.472,-0.147 0.485,-0.147C0.496,-0.147 0.506,-0.143 0.515,-0.134C0.524,-0.125 0.529,-0.115 0.529,-0.104C0.529,-0.068 0.5,-0.037 0.441,-0.011C0.392,0.011 0.343,0.022 0.296,0.022ZM0.283,-0.422C0.243,-0.422 0.21,-0.407 0.184,-0.376C0.157,-0.345 0.138,-0.299 0.125,-0.237L0.274,-0.309C0.333,-0.337 0.375,-0.362 0.4,-0.383C0.372,-0.409 0.333,-0.422 0.283,-0.422Z" style="fill:url(#_Linear30);fill-rule:nonzero;"/>
        </g>
        <g transform="matrix(58.3333,0,0,58.3333,719.636,252.054)">
            <path d="M0.34,-0.739C0.34,-0.727 0.33,-0.711 0.31,-0.689C0.295,-0.674 0.28,-0.659 0.265,-0.644C0.229,-0.603 0.201,-0.544 0.18,-0.468C0.162,-0.402 0.153,-0.337 0.153,-0.272C0.153,-0.107 0.191,0.014 0.266,0.091C0.281,0.103 0.296,0.115 0.311,0.126C0.33,0.141 0.339,0.156 0.339,0.171C0.339,0.182 0.335,0.191 0.327,0.199C0.318,0.207 0.308,0.211 0.297,0.211C0.288,0.211 0.276,0.207 0.262,0.2C0.125,0.123 0.056,-0.039 0.056,-0.284C0.056,-0.372 0.073,-0.461 0.109,-0.552C0.149,-0.652 0.201,-0.725 0.265,-0.771C0.278,-0.78 0.288,-0.784 0.296,-0.784C0.308,-0.784 0.318,-0.78 0.327,-0.77C0.335,-0.761 0.34,-0.75 0.34,-0.739Z" style="fill:url(#_Linear31);fill-rule:nonzero;"/>
        </g>
        <g transform="matrix(58.3333,0,0,58.3333,740.999,252.054)">
            <path d="M0.023,-0.642C0.023,-0.654 0.027,-0.665 0.036,-0.674C0.044,-0.684 0.054,-0.688 0.066,-0.688C0.074,-0.688 0.118,-0.673 0.198,-0.641C0.196,-0.686 0.194,-0.718 0.194,-0.735C0.194,-0.748 0.198,-0.758 0.207,-0.766C0.215,-0.774 0.225,-0.778 0.238,-0.778C0.25,-0.778 0.261,-0.774 0.269,-0.766C0.278,-0.758 0.282,-0.748 0.282,-0.735C0.282,-0.717 0.283,-0.689 0.285,-0.652C0.363,-0.664 0.411,-0.67 0.428,-0.67C0.44,-0.67 0.45,-0.666 0.458,-0.657C0.466,-0.648 0.47,-0.638 0.47,-0.625C0.47,-0.603 0.458,-0.589 0.434,-0.583C0.411,-0.579 0.371,-0.573 0.313,-0.566C0.332,-0.549 0.352,-0.527 0.375,-0.5C0.403,-0.464 0.418,-0.439 0.418,-0.425C0.418,-0.413 0.413,-0.403 0.404,-0.394C0.395,-0.386 0.385,-0.381 0.373,-0.381C0.361,-0.381 0.349,-0.387 0.339,-0.399C0.319,-0.426 0.287,-0.464 0.242,-0.514C0.175,-0.438 0.13,-0.4 0.106,-0.4C0.094,-0.4 0.084,-0.404 0.075,-0.414C0.066,-0.423 0.062,-0.433 0.062,-0.445C0.062,-0.456 0.067,-0.467 0.077,-0.477C0.098,-0.495 0.128,-0.523 0.168,-0.562C0.141,-0.57 0.102,-0.584 0.051,-0.604C0.032,-0.612 0.023,-0.625 0.023,-0.642Z" style="fill:url(#_Linear32);fill-rule:nonzero;"/>
        </g>
        <g transform="matrix(58.3333,0,0,58.3333,771.903,252.054)">
            <path d="M0.29,-0.804C0.308,-0.804 0.329,-0.793 0.354,-0.771C0.362,-0.764 0.38,-0.746 0.408,-0.716L0.485,-0.633C0.494,-0.624 0.499,-0.614 0.499,-0.604C0.499,-0.591 0.494,-0.581 0.485,-0.572C0.476,-0.563 0.465,-0.559 0.454,-0.559C0.443,-0.559 0.433,-0.563 0.423,-0.573C0.397,-0.602 0.356,-0.644 0.3,-0.7C0.218,-0.598 0.165,-0.548 0.141,-0.548C0.129,-0.548 0.119,-0.552 0.11,-0.562C0.101,-0.571 0.097,-0.581 0.097,-0.593C0.097,-0.604 0.102,-0.615 0.112,-0.624C0.13,-0.642 0.179,-0.696 0.26,-0.789C0.269,-0.799 0.279,-0.804 0.29,-0.804Z" style="fill:url(#_Linear33);fill-rule:nonzero;"/>
        </g>
        <g transform="matrix(58.3333,0,0,58.3333,805.798,252.054)">
            <path d="M0.331,0.041C0.289,0.077 0.264,0.094 0.23,0.109C0.173,0.136 0.1,0.148 0.002,0.148C-0.156,0.148 -0.233,0.123 -0.332,0.041L-0.349,0.056C-0.315,0.098 -0.289,0.121 -0.249,0.146C-0.177,0.192 -0.103,0.211 -0.002,0.211C0.154,0.211 0.254,0.167 0.35,0.056L0.331,0.041Z" style="fill:url(#_Linear34);fill-rule:nonzero;"/>
        </g>
        <g transform="matrix(58.3333,0,0,58.3333,805.798,252.054)">
            <path d="M0.29,-0.804C0.308,-0.804 0.329,-0.793 0.354,-0.771C0.362,-0.764 0.38,-0.746 0.408,-0.716L0.485,-0.633C0.494,-0.624 0.499,-0.614 0.499,-0.604C0.499,-0.591 0.494,-0.581 0.485,-0.572C0.476,-0.563 0.465,-0.559 0.454,-0.559C0.443,-0.559 0.433,-0.563 0.423,-0.573C0.397,-0.602 0.356,-0.644 0.3,-0.7C0.218,-0.598 0.165,-0.548 0.141,-0.548C0.129,-0.548 0.119,-0.552 0.11,-0.562C0.101,-0.571 0.097,-0.581 0.097,-0.593C0.097,-0.604 0.102,-0.615 0.112,-0.624C0.13,-0.642 0.179,-0.696 0.26,-0.789C0.269,-0.799 0.279,-0.804 0.29,-0.804Z" style="fill:url(#_Linear35);fill-rule:nonzero;"/>
        </g>
        <g transform="matrix(58.3333,0,0,58.3333,839.692,252.054)">
            <path d="M0.023,-0.642C0.023,-0.654 0.027,-0.665 0.036,-0.674C0.044,-0.684 0.054,-0.688 0.066,-0.688C0.074,-0.688 0.118,-0.673 0.198,-0.641C0.196,-0.686 0.194,-0.718 0.194,-0.735C0.194,-0.748 0.198,-0.758 0.207,-0.766C0.215,-0.774 0.225,-0.778 0.238,-0.778C0.25,-0.778 0.261,-0.774 0.269,-0.766C0.278,-0.758 0.282,-0.748 0.282,-0.735C0.282,-0.717 0.283,-0.689 0.285,-0.652C0.363,-0.664 0.411,-0.67 0.428,-0.67C0.44,-0.67 0.45,-0.666 0.458,-0.657C0.466,-0.648 0.47,-0.638 0.47,-0.625C0.47,-0.603 0.458,-0.589 0.434,-0.583C0.411,-0.579 0.371,-0.573 0.313,-0.566C0.332,-0.549 0.352,-0.527 0.375,-0.5C0.403,-0.464 0.418,-0.439 0.418,-0.425C0.418,-0.413 0.413,-0.403 0.404,-0.394C0.395,-0.386 0.385,-0.381 0.373,-0.381C0.361,-0.381 0.349,-0.387 0.339,-0.399C0.319,-0.426 0.287,-0.464 0.242,-0.514C0.175,-0.438 0.13,-0.4 0.106,-0.4C0.094,-0.4 0.084,-0.404 0.075,-0.414C0.066,-0.423 0.062,-0.433 0.062,-0.445C0.062,-0.456 0.067,-0.467 0.077,-0.477C0.098,-0.495 0.128,-0.523 0.168,-0.562C0.141,-0.57 0.102,-0.584 0.051,-0.604C0.032,-0.612 0.023,-0.625 0.023,-0.642Z" style="fill:url(#_Linear36);fill-rule:nonzero;"/>
        </g>
        <g transform="matrix(58.3333,0,0,58.3333,870.597,252.054)">
            <path d="M0.34,-0.284C0.34,-0.039 0.271,0.123 0.133,0.2C0.119,0.207 0.108,0.211 0.098,0.211C0.087,0.211 0.077,0.207 0.069,0.199C0.06,0.191 0.056,0.182 0.056,0.171C0.056,0.156 0.066,0.141 0.084,0.126C0.099,0.115 0.115,0.103 0.13,0.091C0.205,0.014 0.242,-0.107 0.242,-0.272C0.242,-0.337 0.233,-0.402 0.215,-0.468C0.194,-0.544 0.166,-0.603 0.13,-0.644C0.115,-0.659 0.101,-0.674 0.086,-0.689C0.066,-0.711 0.056,-0.727 0.056,-0.739C0.056,-0.75 0.06,-0.761 0.069,-0.77C0.077,-0.78 0.087,-0.784 0.099,-0.784C0.107,-0.784 0.117,-0.78 0.13,-0.771C0.195,-0.725 0.247,-0.652 0.287,-0.552C0.322,-0.461 0.34,-0.372 0.34,-0.284Z" style="fill:url(#_Linear37);fill-rule:nonzero;"/>
        </g>
    </g>
    <defs>
        <linearGradient id="_Linear1" x1="0" y1="0" x2="1" y2="0" gradientUnits="userSpaceOnUse" gradientTransform="matrix(-0.00108067,0.985068,-0.985068,-0.00108067,3.60485,-0.836933)"><stop offset="0" style="stop-color:white;stop-opacity:1"/><stop offset="1" style="stop-color:rgb(255,131,193);stop-opacity:1"/></linearGradient>
        <linearGradient id="_Linear2" x1="0" y1="0" x2="1" y2="0" gradientUnits="userSpaceOnUse" gradientTransform="matrix(-0.00108067,0.985068,-0.985068,-0.00108067,3.09118,-0.836933)"><stop offset="0" style="stop-color:white;stop-opacity:1"/><stop offset="1" style="stop-color:rgb(255,131,193);stop-opacity:1"/></linearGradient>
        <linearGradient id="_Linear3" x1="0" y1="0" x2="1" y2="0" gradientUnits="userSpaceOnUse" gradientTransform="matrix(-0.00108067,0.985068,-0.985068,-0.00108067,2.57116,-0.836933)"><stop offset="0" style="stop-color:white;stop-opacity:1"/><stop offset="1" style="stop-color:rgb(255,131,193);stop-opacity:1"/></linearGradient>
        <linearGradient id="_Linear4" x1="0" y1="0" x2="1" y2="0" gradientUnits="userSpaceOnUse" gradientTransform="matrix(-0.00108067,0.985068,-0.985068,-0.00108067,2.09997,-0.836933)"><stop offset="0" style="stop-color:white;stop-opacity:1"/><stop offset="1" style="stop-color:rgb(255,131,193);stop-opacity:1"/></linearGradient>
        <linearGradient id="_Linear5" x1="0" y1="0" x2="1" y2="0" gradientUnits="userSpaceOnUse" gradientTransform="matrix(-0.00108067,0.985068,-0.985068,-0.00108067,1.25329,-0.836933)"><stop offset="0" style="stop-color:white;stop-opacity:1"/><stop offset="1" style="stop-color:rgb(255,131,193);stop-opacity:1"/></linearGradient>
        <linearGradient id="_Linear6" x1="0" y1="0" x2="1" y2="0" gradientUnits="userSpaceOnUse" gradientTransform="matrix(-0.00108067,0.985068,-0.985068,-0.00108067,0.722525,-0.836933)"><stop offset="0" style="stop-color:white;stop-opacity:1"/><stop offset="1" style="stop-color:rgb(255,131,193);stop-opacity:1"/></linearGradient>
        <linearGradient id="_Linear7" x1="0" y1="0" x2="1" y2="0" gradientUnits="userSpaceOnUse" gradientTransform="matrix(-0.00108067,0.985068,-0.985068,-0.00108067,0.442251,-0.836933)"><stop offset="0" style="stop-color:white;stop-opacity:1"/><stop offset="1" style="stop-color:rgb(255,131,193);stop-opacity:1"/></linearGradient>
        <linearGradient id="_Linear8" x1="0" y1="0" x2="1" y2="0" gradientUnits="userSpaceOnUse" gradientTransform="matrix(-0.00108067,0.985068,-0.985068,-0.00108067,-0.0382173,-0.836933)"><stop offset="0" style="stop-color:white;stop-opacity:1"/><stop offset="1" style="stop-color:rgb(255,131,193);stop-opacity:1"/></linearGradient>
        <linearGradient id="_Linear9" x1="0" y1="0" x2="1" y2="0" gradientUnits="userSpaceOnUse" gradientTransform="matrix(-0.00108067,0.985068,-0.985068,-0.00108067,-0.312143,-0.836933)"><stop offset="0" style="stop-color:white;stop-opacity:1"/><stop offset="1" style="stop-color:rgb(255,131,193);stop-opacity:1"/></linearGradient>
        <linearGradient id="_Linear10" x1="0" y1="0" x2="1" y2="0" gradientUnits="userSpaceOnUse" gradientTransform="matrix(-0.00108067,0.985068,-0.985068,-0.00108067,-1.09779,-0.836933)"><stop offset="0" style="stop-color:white;stop-opacity:1"/><stop offset="1" style="stop-color:rgb(255,131,193);stop-opacity:1"/></linearGradient>
        <linearGradient id="_Linear11" x1="0" y1="0" x2="1" y2="0" gradientUnits="userSpaceOnUse" gradientTransform="matrix(-0.00108067,0.985068,-0.985068,-0.00108067,-1.61146,-0.836933)"><stop offset="0" style="stop-color:white;stop-opacity:1"/><stop offset="1" style="stop-color:rgb(255,131,193);stop-opacity:1"/></linearGradient>
        <linearGradient id="_Linear12" x1="0" y1="0" x2="1" y2="0" gradientUnits="userSpaceOnUse" gradientTransform="matrix(-0.00108067,0.985068,-0.985068,-0.00108067,-1.88539,-0.836933)"><stop offset="0" style="stop-color:white;stop-opacity:1"/><stop offset="1" style="stop-color:rgb(255,131,193);stop-opacity:1"/></linearGradient>
        <linearGradient id="_Linear13" x1="0" y1="0" x2="1" y2="0" gradientUnits="userSpaceOnUse" gradientTransform="matrix(-0.00108067,0.985068,-0.985068,-0.00108067,-2.4054,-0.836933)"><stop offset="0" style="stop-color:white;stop-opacity:1"/><stop offset="1" style="stop-color:rgb(255,131,193);stop-opacity:1"/></linearGradient>
        <linearGradient id="_Linear14" x1="0" y1="0" x2="1" y2="0" gradientUnits="userSpaceOnUse" gradientTransform="matrix(-0.00148067,1.34969,-1.34969,-0.00148067,3.06391,-2.99957)"><stop offset="0" style="stop-color:white;stop-opacity:1"/><stop offset="1" style="stop-color:rgb(255,131,193);stop-opacity:1"/></linearGradient>
        <linearGradient id="_Linear15" x1="0" y1="0" x2="1" y2="0" gradientUnits="userSpaceOnUse" gradientTransform="matrix(-0.00148067,1.34969,-1.34969,-0.00148067,2.25336,-2.99957)"><stop offset="0" style="stop-color:white;stop-opacity:1"/><stop offset="1" style="stop-color:rgb(255,131,193);stop-opacity:1"/></linearGradient>
        <linearGradient id="_Linear16" x1="0" y1="0" x2="1" y2="0" gradientUnits="userSpaceOnUse" gradientTransform="matrix(-0.00148067,1.34969,-1.34969,-0.00148067,1.73969,-2.99957)"><stop offset="0" style="stop-color:white;stop-opacity:1"/><stop offset="1" style="stop-color:rgb(255,131,193);stop-opacity:1"/></linearGradient>
        <linearGradient id="_Linear17" x1="0" y1="0" x2="1" y2="0" gradientUnits="userSpaceOnUse" gradientTransform="matrix(-0.00148067,1.34969,-1.34969,-0.00148067,1.21381,-2.99957)"><stop offset="0" style="stop-color:white;stop-opacity:1"/><stop offset="1" style="stop-color:rgb(255,131,193);stop-opacity:1"/></linearGradient>
        <linearGradient id="_Linear18" x1="0" y1="0" x2="1" y2="0" gradientUnits="userSpaceOnUse" gradientTransform="matrix(-0.00148067,1.34969,-1.34969,-0.00148067,0.436953,-2.99957)"><stop offset="0" style="stop-color:white;stop-opacity:1"/><stop offset="1" style="stop-color:rgb(255,131,193);stop-opacity:1"/></linearGradient>
        <linearGradient id="_Linear19" x1="0" y1="0" x2="1" y2="0" gradientUnits="userSpaceOnUse" gradientTransform="matrix(-0.00148067,1.34969,-1.34969,-0.00148067,-0.0713473,-2.99957)"><stop offset="0" style="stop-color:white;stop-opacity:1"/><stop offset="1" style="stop-color:rgb(255,131,193);stop-opacity:1"/></linearGradient>
        <linearGradient id="_Linear20" x1="0" y1="0" x2="1" y2="0" gradientUnits="userSpaceOnUse" gradientTransform="matrix(-0.00148067,1.34969,-1.34969,-0.00148067,-0.890683,-2.99957)"><stop offset="0" style="stop-color:white;stop-opacity:1"/><stop offset="1" style="stop-color:rgb(255,131,193);stop-opacity:1"/></linearGradient>
        <linearGradient id="_Linear21" x1="0" y1="0" x2="1" y2="0" gradientUnits="userSpaceOnUse" gradientTransform="matrix(-0.00148067,1.34969,-1.34969,-0.00148067,-1.39898,-2.99957)"><stop offset="0" style="stop-color:white;stop-opacity:1"/><stop offset="1" style="stop-color:rgb(255,131,193);stop-opacity:1"/></linearGradient>
        <linearGradient id="_Linear22" x1="0" y1="0" x2="1" y2="0" gradientUnits="userSpaceOnUse" gradientTransform="matrix(-0.00148067,1.34969,-1.34969,-0.00148067,-1.87945,-2.99957)"><stop offset="0" style="stop-color:white;stop-opacity:1"/><stop offset="1" style="stop-color:rgb(255,131,193);stop-opacity:1"/></linearGradient>
        <linearGradient id="_Linear23" x1="0" y1="0" x2="1" y2="0" gradientUnits="userSpaceOnUse" gradientTransform="matrix(-0.00148067,1.34969,-1.34969,-0.00148067,-2.15973,-2.99957)"><stop offset="0" style="stop-color:white;stop-opacity:1"/><stop offset="1" style="stop-color:rgb(255,131,193);stop-opacity:1"/></linearGradient>
        <linearGradient id="_Linear24" x1="0" y1="0" x2="1" y2="0" gradientUnits="userSpaceOnUse" gradientTransform="matrix(-0.00148067,1.34969,-1.34969,-0.00148067,-2.70758,-2.99957)"><stop offset="0" style="stop-color:white;stop-opacity:1"/><stop offset="1" style="stop-color:rgb(255,131,193);stop-opacity:1"/></linearGradient>
        <linearGradient id="_Linear25" x1="0" y1="0" x2="1" y2="0" gradientUnits="userSpaceOnUse" gradientTransform="matrix(-0.00148067,1.34969,-1.34969,-0.00148067,-3.23102,-2.99957)"><stop offset="0" style="stop-color:white;stop-opacity:1"/><stop offset="1" style="stop-color:rgb(255,131,193);stop-opacity:1"/></linearGradient>
        <linearGradient id="_Linear26" x1="0" y1="0" x2="1" y2="0" gradientUnits="userSpaceOnUse" gradientTransform="matrix(-0.00148067,1.34969,-1.34969,-0.00148067,-4.11725,-2.99957)"><stop offset="0" style="stop-color:white;stop-opacity:1"/><stop offset="1" style="stop-color:rgb(255,131,193);stop-opacity:1"/></linearGradient>
        <linearGradient id="_Linear27" x1="0" y1="0" x2="1" y2="0" gradientUnits="userSpaceOnUse" gradientTransform="matrix(-0.00148067,1.34969,-1.34969,-0.00148067,-4.60406,-2.99957)"><stop offset="0" style="stop-color:white;stop-opacity:1"/><stop offset="1" style="stop-color:rgb(255,131,193);stop-opacity:1"/></linearGradient>
        <linearGradient id="_Linear28" x1="0" y1="0" x2="1" y2="0" gradientUnits="userSpaceOnUse" gradientTransform="matrix(-0.00148067,1.34969,-1.34969,-0.00148067,-5.13873,-2.99957)"><stop offset="0" style="stop-color:white;stop-opacity:1"/><stop offset="1" style="stop-color:rgb(255,131,193);stop-opacity:1"/></linearGradient>
        <linearGradient id="_Linear29" x1="0" y1="0" x2="1" y2="0" gradientUnits="userSpaceOnUse" gradientTransform="matrix(-0.00148067,1.34969,-1.34969,-0.00148067,-5.65045,-2.99957)"><stop offset="0" style="stop-color:white;stop-opacity:1"/><stop offset="1" style="stop-color:rgb(255,131,193);stop-opacity:1"/></linearGradient>
        <linearGradient id="_Linear30" x1="0" y1="0" x2="1" y2="0" gradientUnits="userSpaceOnUse" gradientTransform="matrix(-0.00148067,1.34969,-1.34969,-0.00148067,-6.16412,-2.99957)"><stop offset="0" style="stop-color:white;stop-opacity:1"/><stop offset="1" style="stop-color:rgb(255,131,193);stop-opacity:1"/></linearGradient>
        <linearGradient id="_Linear31" x1="0" y1="0" x2="1" y2="0" gradientUnits="userSpaceOnUse" gradientTransform="matrix(-0.00148067,1.34969,-1.34969,-0.00148067,-7.0108,-2.99957)"><stop offset="0" style="stop-color:white;stop-opacity:1"/><stop offset="1" style="stop-color:rgb(255,131,193);stop-opacity:1"/></linearGradient>
        <linearGradient id="_Linear32" x1="0" y1="0" x2="1" y2="0" gradientUnits="userSpaceOnUse" gradientTransform="matrix(-0.00148067,1.34969,-1.34969,-0.00148067,-7.37701,-2.99957)"><stop offset="0" style="stop-color:white;stop-opacity:1"/><stop offset="1" style="stop-color:rgb(255,131,193);stop-opacity:1"/></linearGradient>
        <linearGradient id="_Linear33" x1="0" y1="0" x2="1" y2="0" gradientUnits="userSpaceOnUse" gradientTransform="matrix(-0.00148067,1.34969,-1.34969,-0.00148067,-7.9068,-2.99957)"><stop offset="0" style="stop-color:white;stop-opacity:1"/><stop offset="1" style="stop-color:rgb(255,131,193);stop-opacity:1"/></linearGradient>
        <linearGradient id="_Linear34" x1="0" y1="0" x2="1" y2="0" gradientUnits="userSpaceOnUse" gradientTransform="matrix(-0.00148067,1.34969,-1.34969,-0.00148067,-8.48785,-2.99957)"><stop offset="0" style="stop-color:white;stop-opacity:1"/><stop offset="1" style="stop-color:rgb(255,131,193);stop-opacity:1"/></linearGradient>
        <linearGradient id="_Linear35" x1="0" y1="0" x2="1" y2="0" gradientUnits="userSpaceOnUse" gradientTransform="matrix(-0.00148067,1.34969,-1.34969,-0.00148067,-8.48785,-2.99957)"><stop offset="0" style="stop-color:white;stop-opacity:1"/><stop offset="1" style="stop-color:rgb(255,131,193);stop-opacity:1"/></linearGradient>
        <linearGradient id="_Linear36" x1="0" y1="0" x2="1" y2="0" gradientUnits="userSpaceOnUse" gradientTransform="matrix(-0.00148067,1.34969,-1.34969,-0.00148067,-9.06891,-2.99957)"><stop offset="0" style="stop-color:white;stop-opacity:1"/><stop offset="1" style="stop-color:rgb(255,131,193);stop-opacity:1"/></linearGradient>
        <linearGradient id="_Linear37" x1="0" y1="0" x2="1" y2="0" gradientUnits="userSpaceOnUse" gradientTransform="matrix(-0.00148067,1.34969,-1.34969,-0.00148067,-9.59869,-2.99957)"><stop offset="0" style="stop-color:white;stop-opacity:1"/><stop offset="1" style="stop-color:rgb(255,131,193);stop-opacity:1"/></linearGradient>
    </defs>
</svg>
